<svg width="96" height="96" viewBox="0 0 96 96" fill="none" xmlns="http://www.w3.org/2000/svg">
<g filter="url(#filter0_d_2602_7305)">
<path d="M80 44C80 61.6731 65.6731 76 48 76C30.3269 76 16 61.6731 16 44C16 26.3269 30.3269 12 48 12C65.6731 12 80 26.3269 80 44Z" fill="url(#paint0_linear_2602_7305)"/>
<path d="M79.5 44C79.5 61.397 65.397 75.5 48 75.5C30.603 75.5 16.5 61.397 16.5 44C16.5 26.603 30.603 12.5 48 12.5C65.397 12.5 79.5 26.603 79.5 44Z" stroke="url(#paint1_linear_2602_7305)"/>
</g>
<path opacity="0.3" d="M32 35V29C32 28.4477 32.4477 28 33 28H39" stroke="#F7F7FB" stroke-linecap="round" stroke-linejoin="round"/>
<path opacity="0.3" d="M64 35V29C64 28.4477 63.5523 28 63 28H57" stroke="#F7F7FB" stroke-linecap="round" stroke-linejoin="round"/>
<path opacity="0.3" d="M32 53V59C32 59.5523 32.4477 60 33 60H39" stroke="#F7F7FB" stroke-linecap="round" stroke-linejoin="round"/>
<path opacity="0.3" d="M64 53V59C64 59.5523 63.5523 60 63 60H57" stroke="#F7F7FB" stroke-linecap="round" stroke-linejoin="round"/>
<path d="M47.028 33.7705C42.4825 33.7705 38.7798 37.4732 38.7798 42.0187C38.7798 46.5642 42.4825 50.2741 47.028 50.2741C48.9695 50.2741 50.7551 49.5937 52.1663 48.464L55.6021 51.8979C55.7754 52.0641 56.007 52.1558 56.2472 52.1534C56.4873 52.1509 56.717 52.0545 56.8869 51.8848C57.0569 51.7151 57.1536 51.4856 57.1564 51.2455C57.1592 51.0053 57.0678 50.7736 56.9019 50.6L53.4661 47.1643C54.5968 45.7509 55.278 43.9625 55.278 42.0187C55.278 37.4732 51.5735 33.7705 47.028 33.7705ZM47.028 35.6039C50.5827 35.6039 53.4429 38.4641 53.4429 42.0187C53.4429 45.5734 50.5827 48.4408 47.028 48.4408C43.4733 48.4408 40.6131 45.5734 40.6131 42.0187C40.6131 38.4641 43.4733 35.6039 47.028 35.6039Z" fill="white"/>
<defs>
<filter id="filter0_d_2602_7305" x="0" y="0" width="96" height="96" filterUnits="userSpaceOnUse" color-interpolation-filters="sRGB">
<feFlood flood-opacity="0" result="BackgroundImageFix"/>
<feColorMatrix in="SourceAlpha" type="matrix" values="0 0 0 0 0 0 0 0 0 0 0 0 0 0 0 0 0 0 127 0" result="hardAlpha"/>
<feOffset dy="4"/>
<feGaussianBlur stdDeviation="8"/>
<feComposite in2="hardAlpha" operator="out"/>
<feColorMatrix type="matrix" values="0 0 0 0 0 0 0 0 0 0 0 0 0 0 0 0 0 0 0.25 0"/>
<feBlend mode="normal" in2="BackgroundImageFix" result="effect1_dropShadow_2602_7305"/>
<feBlend mode="normal" in="SourceGraphic" in2="effect1_dropShadow_2602_7305" result="shape"/>
</filter>
<linearGradient id="paint0_linear_2602_7305" x1="71.5" y1="23" x2="25" y2="65" gradientUnits="userSpaceOnUse">
<stop stop-color="#36344A"/>
<stop offset="1" stop-color="#16142E"/>
</linearGradient>
<linearGradient id="paint1_linear_2602_7305" x1="20.5" y1="61" x2="74" y2="25" gradientUnits="userSpaceOnUse">
<stop stop-color="white"/>
<stop offset="1" stop-color="white" stop-opacity="0"/>
</linearGradient>
</defs>
</svg>
