<svg width="24" height="24" viewBox="0 0 24 24" fill="none" xmlns="http://www.w3.org/2000/svg">
<rect width="24" height="24" rx="12" fill="#0A0822" fill-opacity="0.5"/>
<path d="M6.67969 17.2539H17.3086C18.5742 17.2539 19.2422 16.5977 19.2422 15.3438V9.19141C19.2422 7.9375 18.5742 7.28125 17.3086 7.28125H15.75C15.293 7.28125 15.1465 7.20508 14.8594 6.90625L14.3965 6.4082C14.0918 6.08594 13.7812 5.92773 13.1836 5.92773H10.7754C10.1777 5.92773 9.86719 6.08594 9.5625 6.4082L9.09961 6.90625C8.81836 7.19922 8.66602 7.28125 8.20898 7.28125H6.67969C5.41406 7.28125 4.75195 7.9375 4.75195 9.19141V15.3438C4.75195 16.5977 5.41406 17.2539 6.67969 17.2539ZM11.9941 15.4141C10.2422 15.4141 8.83594 14.0078 8.83594 12.25C8.83594 10.4863 10.2422 9.08008 11.9941 9.08008C13.752 9.08008 15.1582 10.4863 15.1582 12.25C15.1582 14.0078 13.752 15.4141 11.9941 15.4141ZM15.5332 10.0938C15.5332 9.67773 15.8906 9.31445 16.3184 9.31445C16.7402 9.31445 17.0977 9.67773 17.0977 10.0938C17.0977 10.5273 16.7402 10.8672 16.3184 10.873C15.8906 10.873 15.5332 10.5332 15.5332 10.0938ZM11.9941 14.3535C13.1602 14.3535 14.0977 13.416 14.0977 12.25C14.0977 11.0781 13.1602 10.1406 11.9941 10.1406C10.834 10.1406 9.89648 11.0781 9.89648 12.25C9.89648 13.416 10.8398 14.3535 11.9941 14.3535Z" fill="#F7F7FB"/>
</svg>
