<svg width="10" height="6" viewBox="0 0 10 6" fill="none" xmlns="http://www.w3.org/2000/svg">
<path d="M5.02539 5.86914C5.28418 5.86426 5.48926 5.77637 5.69434 5.56641L9.28809 1.88965C9.43945 1.7334 9.51758 1.55273 9.51758 1.32812C9.51758 0.878906 9.15137 0.507812 8.70703 0.507812C8.48242 0.507812 8.27734 0.600586 8.10645 0.771484L5.03027 3.95508L1.94434 0.771484C1.77832 0.600586 1.57324 0.507813 1.34375 0.507813C0.899414 0.507813 0.533203 0.878906 0.533203 1.32813C0.533203 1.54785 0.606445 1.7334 0.762695 1.88965L4.35645 5.56641C4.56152 5.77637 4.77148 5.86914 5.02539 5.86914Z" fill="white"/>
</svg>
