<svg width="20" height="24" viewBox="0 0 20 24" fill="none" xmlns="http://www.w3.org/2000/svg">
<path d="M5.38951 23.5212H14.6205C16.1674 23.5212 17.1618 22.5871 17.2422 21.0402L17.9152 6.57592H19.0201C19.5324 6.57592 19.9241 6.17413 19.9241 5.6719C19.9241 5.16967 19.5223 4.78797 19.0201 4.78797H14.5603V3.28128C14.5603 1.7344 13.5759 0.830383 11.8984 0.830383H8.08148C6.40402 0.830383 5.41965 1.7344 5.41965 3.28128V4.78797H0.979915C0.477683 4.78797 0.0758972 5.17971 0.0758972 5.6719C0.0758972 6.18418 0.477683 6.57592 0.979915 6.57592H2.08483L2.75782 21.0402C2.83817 22.5971 3.82255 23.5212 5.38951 23.5212ZM7.298 3.37168C7.298 2.8594 7.6596 2.52793 8.21206 2.52793H11.7679C12.3203 2.52793 12.6819 2.8594 12.6819 3.37168V4.78797H7.298V3.37168ZM5.59041 21.7232C5.03795 21.7232 4.63616 21.3114 4.60603 20.7188L3.93304 6.57592H16.0368L15.3839 20.7188C15.3638 21.3215 14.9721 21.7232 14.3996 21.7232H5.59041ZM7.03683 20.1061C7.46875 20.1061 7.73996 19.8348 7.72991 19.4331L7.42858 8.92637C7.41853 8.52458 7.13728 8.26342 6.72545 8.26342C6.30358 8.26342 6.03237 8.53463 6.04241 8.93641L6.34375 19.4431C6.3538 19.8449 6.63505 20.1061 7.03683 20.1061ZM10 20.1061C10.4219 20.1061 10.7132 19.8449 10.7132 19.4431V8.93641C10.7132 8.53463 10.4219 8.26342 10 8.26342C9.57813 8.26342 9.29688 8.53463 9.29688 8.93641V19.4431C9.29688 19.8449 9.57813 20.1061 10 20.1061ZM12.9632 20.1161C13.365 20.1161 13.6462 19.8449 13.6563 19.4431L13.9576 8.93641C13.9676 8.53463 13.6964 8.27346 13.2746 8.27346C12.8627 8.27346 12.5815 8.53463 12.5714 8.93641L12.2701 19.4431C12.26 19.8348 12.5313 20.1161 12.9632 20.1161Z" fill="white"/>
</svg>
