<svg width="18" height="18" viewBox="0 0 18 18" fill="none" xmlns="http://www.w3.org/2000/svg">
<path d="M16.7275 2.59668L17.3867 1.91113C17.7207 1.55957 17.7383 1.08496 17.4131 0.750977L17.1846 0.513672C16.8857 0.214844 16.3936 0.267578 16.0684 0.583984L15.3916 1.25195L16.7275 2.59668ZM6.30371 11.9834L8.09668 11.2275L16.0859 3.22949L14.75 1.90234L6.76074 9.90039L5.96973 11.6318C5.88184 11.834 6.10156 12.0625 6.30371 11.9834ZM2.98145 17.8457H13.2295C14.9082 17.8457 15.8926 16.8701 15.8926 14.998V5.70801L14.1699 7.43066V14.8486C14.1699 15.7012 13.7129 16.1318 13.124 16.1318H3.08691C2.26953 16.1318 1.82129 15.7012 1.82129 14.8486V5.06641C1.82129 4.21387 2.26953 3.7832 3.08691 3.7832H10.6016L12.3242 2.06055H2.98145C1.0918 2.06055 0.0986328 3.03613 0.0986328 4.91699V14.998C0.0986328 16.8789 1.0918 17.8457 2.98145 17.8457Z" fill="#0A0822"/>
</svg>
