<svg width="46" height="45" viewBox="0 0 46 45" fill="none" xmlns="http://www.w3.org/2000/svg">
<path d="M22.9785 44.7031C35.1602 44.7031 45.2148 34.6484 45.2148 22.4883C45.2148 10.3281 35.1387 0.273438 22.957 0.273438C10.7969 0.273438 0.763672 10.3281 0.763672 22.4883C0.763672 34.6484 10.8184 44.7031 22.9785 44.7031ZM22.9785 40.2773C13.1172 40.2773 5.23242 32.3496 5.23242 22.4883C5.23242 12.627 13.1172 4.7207 22.957 4.7207C32.8184 4.7207 40.7461 12.627 40.7676 22.4883C40.7891 32.3496 32.8398 40.2773 22.9785 40.2773ZM15.9316 31.5117C16.4902 31.5117 16.9844 31.3184 17.3496 30.9316L22.9785 25.3027L28.6074 30.9316C28.9727 31.2969 29.4453 31.5117 30.0254 31.5117C31.1211 31.5117 31.9805 30.6523 31.9805 29.5566C31.9805 29.0195 31.7656 28.5469 31.4004 28.1816L25.75 22.5312L31.4004 16.8594C31.8086 16.4512 32.002 16.0215 32.002 15.5059C32.002 14.4102 31.1426 13.5508 30.0469 13.5508C29.5098 13.5508 29.0586 13.7227 28.6504 14.1309L22.9785 19.7812L17.3066 14.1523C16.9414 13.7656 16.4902 13.5723 15.9316 13.5723C14.8359 13.5723 13.9766 14.4102 13.9766 15.5059C13.9766 16.043 14.1914 16.5156 14.5781 16.8809L20.207 22.5312L14.5781 28.2031C14.1914 28.5469 13.9766 29.041 13.9766 29.5566C13.9766 30.6523 14.8359 31.5117 15.9316 31.5117Z" fill="#A7173B"/>
</svg>
