<svg width="18" height="24" viewBox="0 0 18 24" fill="none" xmlns="http://www.w3.org/2000/svg">
<path d="M8.99998 0.705872C5.47057 0.705872 2.64704 3.5294 2.64704 7.05881V9.88234C1.44704 9.88234 0.529396 10.8 0.529396 12V21.1765C0.529396 22.3765 1.44704 23.2941 2.64704 23.2941H15.3529C16.5529 23.2941 17.4706 22.3765 17.4706 21.1765V12C17.4706 10.8 16.5529 9.88234 15.3529 9.88234V7.05881C15.3529 3.5294 12.5294 0.705872 8.99998 0.705872ZM16.0588 12V21.1765C16.0588 21.6 15.7765 21.8823 15.3529 21.8823H2.64704C2.22351 21.8823 1.94116 21.6 1.94116 21.1765V12C1.94116 11.5765 2.22351 11.2941 2.64704 11.2941H3.35293H14.647H15.3529C15.7765 11.2941 16.0588 11.5765 16.0588 12ZM4.05881 9.88234V7.05881C4.05881 4.30587 6.24704 2.11764 8.99998 2.11764C11.7529 2.11764 13.9412 4.30587 13.9412 7.05881V9.88234H4.05881Z" fill="#333333"/>
<path d="M8.99999 13.4117C7.79999 13.4117 6.88234 14.3294 6.88234 15.5294C6.88234 16.447 7.44705 17.2235 8.29411 17.5059V19.0588C8.29411 19.4823 8.57646 19.7647 8.99999 19.7647C9.42352 19.7647 9.70587 19.4823 9.70587 19.0588V17.5059C10.5529 17.2235 11.1176 16.447 11.1176 15.5294C11.1176 14.3294 10.2 13.4117 8.99999 13.4117ZM8.99999 16.2353C8.57646 16.2353 8.29411 15.9529 8.29411 15.5294C8.29411 15.1059 8.57646 14.8235 8.99999 14.8235C9.42352 14.8235 9.70587 15.1059 9.70587 15.5294C9.70587 15.9529 9.42352 16.2353 8.99999 16.2353Z" fill="#333333"/>
</svg>
