<svg width="48" height="48" viewBox="0 0 48 48" fill="none" xmlns="http://www.w3.org/2000/svg">
<path d="M24 2C19.6488 2 15.3953 3.29028 11.7775 5.70767C8.15958 8.12506 5.33979 11.561 3.67466 15.581C2.00953 19.6009 1.57386 24.0244 2.42273 28.292C3.27161 32.5596 5.36691 36.4796 8.44366 39.5564C11.5204 42.6331 15.4404 44.7284 19.708 45.5773C23.9756 46.4261 28.3991 45.9905 32.419 44.3253C36.439 42.6602 39.8749 39.8404 42.2923 36.2225C44.7097 32.6047 46 28.3512 46 24C45.9931 18.1673 43.6731 12.5756 39.5488 8.45125C35.4244 4.32694 29.8327 2.00688 24 2V2ZM24 42C20.4399 42 16.9598 40.9443 13.9997 38.9665C11.0397 36.9886 8.73256 34.1774 7.37018 30.8883C6.0078 27.5992 5.65134 23.98 6.34587 20.4884C7.04041 16.9967 8.75474 13.7894 11.2721 11.2721C13.7894 8.75473 16.9967 7.0404 20.4884 6.34586C23.98 5.65133 27.5992 6.00779 30.8883 7.37017C34.1774 8.73255 36.9886 11.0397 38.9665 13.9997C40.9443 16.9598 42 20.4399 42 24C41.9947 28.7723 40.0966 33.3476 36.7221 36.7221C33.3476 40.0966 28.7723 41.9947 24 42V42Z" fill="#00A010"/>
<path d="M30.5861 17.5849L22.0002 26.1709L17.4142 21.5849C17.2297 21.3938 17.009 21.2415 16.765 21.1367C16.521 21.0318 16.2585 20.9767 15.993 20.9744C15.7274 20.9721 15.464 21.0227 15.2183 21.1232C14.9725 21.2238 14.7492 21.3723 14.5614 21.5601C14.3736 21.7479 14.2251 21.9712 14.1245 22.217C14.024 22.4627 13.9734 22.7261 13.9757 22.9917C13.978 23.2572 14.0331 23.5197 14.138 23.7637C14.2428 24.0077 14.3951 24.2284 14.5862 24.4129L20.5862 30.4129C20.9612 30.7878 21.4698 30.9984 22.0002 30.9984C22.5305 30.9984 23.0391 30.7878 23.4141 30.4129L33.4141 20.4129C33.7785 20.0357 33.98 19.5305 33.9755 19.0061C33.9709 18.4817 33.7606 17.98 33.3898 17.6092C33.019 17.2384 32.5173 17.0281 31.9929 17.0235C31.4685 17.019 30.9633 17.2205 30.5861 17.5849Z" fill="#00A010"/>
</svg>
