<svg width="28" height="28" viewBox="0 0 28 28" fill="none" xmlns="http://www.w3.org/2000/svg">
<path d="M13.1914 22.9883H14.7998C15.3184 22.9883 15.7139 22.6807 15.8193 22.1709L16.2676 20.2988C16.5664 20.1934 16.8564 20.0791 17.1201 19.9561L18.7549 20.958C19.1855 21.2305 19.6865 21.1865 20.0469 20.8262L21.1719 19.7012C21.5322 19.3408 21.585 18.8135 21.2949 18.3828L20.3018 16.7656C20.4248 16.4932 20.5479 16.2119 20.6357 15.9395L22.5166 15.4912C23.0264 15.377 23.334 14.9902 23.334 14.4717V12.8896C23.334 12.3711 23.0264 11.9844 22.5166 11.8701L20.6533 11.4219C20.5479 11.1055 20.4248 10.8242 20.3193 10.5869L21.3125 8.93457C21.5938 8.49512 21.5586 8.00293 21.1895 7.63379L20.0469 6.50879C19.6777 6.1748 19.2207 6.11328 18.7812 6.35938L17.1201 7.37891C16.8652 7.25586 16.584 7.1416 16.2676 7.03613L15.8193 5.1377C15.7139 4.62793 15.3184 4.32031 14.7998 4.32031H13.1914C12.6641 4.32031 12.2773 4.62793 12.1631 5.14648L11.7236 7.01855C11.416 7.12402 11.1172 7.23828 10.8535 7.37012L9.20117 6.35938C8.76172 6.11328 8.30469 6.16602 7.93555 6.50879L6.79297 7.63379C6.42383 8.00293 6.38867 8.49512 6.66992 8.93457L7.66309 10.5869C7.55762 10.8242 7.43457 11.1055 7.33789 11.4219L5.47461 11.8701C4.96484 11.9844 4.65723 12.3711 4.65723 12.8896V14.4717C4.65723 14.9902 4.96484 15.377 5.47461 15.4912L7.35547 15.9395C7.44336 16.2119 7.55762 16.4932 7.68066 16.7656L6.6875 18.3828C6.39746 18.8135 6.4502 19.3408 6.81055 19.7012L7.93555 20.8262C8.2959 21.1865 8.80566 21.2305 9.23633 20.958L10.8623 19.9561C11.126 20.0791 11.416 20.1934 11.7236 20.2988L12.1631 22.1709C12.2773 22.6807 12.6641 22.9883 13.1914 22.9883ZM14 16.7305C12.3037 16.7305 10.915 15.3418 10.915 13.6455C10.915 11.9668 12.3037 10.5781 14 10.5781C15.6875 10.5781 17.0674 11.9668 17.0674 13.6455C17.0674 15.3418 15.6875 16.7305 14 16.7305Z" fill="#1C1C1E"/>
</svg>
