<svg width="32" height="33" viewBox="0 0 32 33" fill="none" xmlns="http://www.w3.org/2000/svg">
<path d="M6.70869 21.971H8.02454C8.32588 21.971 8.44642 21.9107 8.6674 21.74L9.34039 21.2277C9.71204 21.5994 10.2645 21.6797 10.817 21.4386L14.1417 20.0525C14.3928 19.952 14.5234 19.8516 14.6841 19.6909L24.3873 10.0581C25.3515 9.09378 25.3515 7.93864 24.3772 6.95427L22.1975 4.76454C21.2232 3.79021 20.0681 3.78016 19.1038 4.74445L9.40066 14.3672C9.2299 14.538 9.1395 14.6585 9.029 14.9197L7.62275 18.2344C7.39173 18.7668 7.452 19.2891 7.82365 19.7009L6.37722 21.1976C6.06584 21.529 6.2165 21.971 6.70869 21.971ZM20.2187 6.07034C20.4799 5.81922 20.7913 5.80918 21.0324 6.06029L23.0815 8.11945C23.3326 8.37056 23.3225 8.6719 23.0513 8.93306L22.3984 9.58596L19.5558 6.73329L20.2187 6.07034ZM11.1786 15.0603L18.471 7.81811L21.3036 10.6708L14.0212 17.913L11.1786 15.0603ZM10.6161 19.6607C10.4252 19.7311 10.2946 19.7311 10.1239 19.5603L9.49106 18.9375C9.33034 18.7768 9.33034 18.6261 9.40066 18.4554L10.3047 16.3561L12.7154 18.7869L10.6161 19.6607ZM6.36717 25.5369H25.6428C26.125 25.5369 26.5167 25.125 26.5167 24.6429C26.5167 24.1607 26.125 23.759 25.6428 23.759H6.36717C5.87499 23.759 5.48325 24.1607 5.48325 24.6429C5.48325 25.125 5.88503 25.5369 6.36717 25.5369Z" fill="white"/>
</svg>
