<svg width="48" height="48" viewBox="0 0 48 48" fill="none" xmlns="http://www.w3.org/2000/svg">
<path d="M24.0003 2.00049C19.6491 2.00049 15.3956 3.29077 11.7777 5.70816C8.15983 8.12555 5.34003 11.5615 3.6749 15.5815C2.00978 19.6014 1.5741 24.0249 2.42298 28.2925C3.27185 32.5601 5.36715 36.4801 8.4439 39.5568C11.5207 42.6336 15.4407 44.7289 19.7083 45.5778C23.9758 46.4266 28.3993 45.991 32.4193 44.3258C36.4393 42.6607 39.8752 39.8409 42.2926 36.223C44.71 32.6052 46.0003 28.3517 46.0003 24.0005C45.9934 18.1678 43.6733 12.576 39.549 8.45174C35.4247 4.32743 29.8329 2.00737 24.0003 2.00049ZM24.0003 42.0005C20.4402 42.0005 16.9601 40.9448 14 38.9669C11.0399 36.9891 8.7328 34.1779 7.37042 30.8888C6.00804 27.5997 5.65158 23.9805 6.34612 20.4889C7.04065 16.9972 8.75499 13.7899 11.2723 11.2726C13.7897 8.75522 16.997 7.04089 20.4886 6.34635C23.9803 5.65182 27.5995 6.00828 30.8886 7.37066C34.1776 8.73303 36.9888 11.0401 38.9667 14.0002C40.9446 16.9603 42.0003 20.4404 42.0003 24.0005C41.995 28.7728 40.0968 33.3481 36.7223 36.7226C33.3478 40.0971 28.7725 41.9952 24.0003 42.0005Z" fill="#0F7D3E"/>
<path d="M30.5859 17.5853L21.9999 26.1713L17.4139 21.5853C17.2294 21.3943 17.0087 21.242 16.7647 21.1371C16.5207 21.0323 16.2583 20.9772 15.9927 20.9748C15.7272 20.9725 15.4638 21.0231 15.218 21.1237C14.9722 21.2243 14.7489 21.3728 14.5611 21.5606C14.3733 21.7483 14.2248 21.9716 14.1243 22.2174C14.0237 22.4632 13.9731 22.7266 13.9754 22.9922C13.9777 23.2577 14.0329 23.5201 14.1377 23.7642C14.2425 24.0082 14.3949 24.2289 14.5859 24.4133L20.5859 30.4133C20.961 30.7883 21.4696 30.9989 21.9999 30.9989C22.5302 30.9989 23.0388 30.7883 23.4139 30.4133L33.4139 20.4133C33.7782 20.0361 33.9798 19.5309 33.9752 19.0065C33.9707 18.4822 33.7603 17.9805 33.3895 17.6097C33.0187 17.2389 32.5171 17.0286 31.9927 17.024C31.4683 17.0194 30.9631 17.221 30.5859 17.5853Z" fill="#0F7D3E"/>
</svg>
