<svg width="21" height="20" viewBox="0 0 21 20" fill="none" xmlns="http://www.w3.org/2000/svg">
<path d="M11.3333 5.83268H9.66666V9.16602H6.33332V10.8327H9.66666V14.166H11.3333V10.8327H14.6667V9.16602H11.3333V5.83268ZM10.5 1.66602C5.89999 1.66602 2.16666 5.39935 2.16666 9.99935C2.16666 14.5993 5.89999 18.3327 10.5 18.3327C15.1 18.3327 18.8333 14.5993 18.8333 9.99935C18.8333 5.39935 15.1 1.66602 10.5 1.66602ZM10.5 16.666C6.82499 16.666 3.83332 13.6743 3.83332 9.99935C3.83332 6.32435 6.82499 3.33268 10.5 3.33268C14.175 3.33268 17.1667 6.32435 17.1667 9.99935C17.1667 13.6743 14.175 16.666 10.5 16.666Z" fill="#757A8C"/>
</svg>
