<svg width="16" height="15" viewBox="0 0 16 15" fill="none" xmlns="http://www.w3.org/2000/svg">
<path d="M6.7419 12.3141C7.93972 12.3141 9.06221 11.9525 9.99636 11.3348L13.296 14.642C13.5145 14.8529 13.7932 14.9584 14.0946 14.9584C14.7199 14.9584 15.1794 14.4687 15.1794 13.851C15.1794 13.5647 15.0815 13.2859 14.8705 13.075L11.5935 9.78287C12.2715 8.81859 12.6708 7.6509 12.6708 6.38527C12.6708 3.12327 10.0039 0.456421 6.7419 0.456421C3.48744 0.456421 0.813049 3.12327 0.813049 6.38527C0.813049 9.64727 3.4799 12.3141 6.7419 12.3141ZM6.7419 10.7321C4.35379 10.7321 2.39508 8.77339 2.39508 6.38527C2.39508 3.99716 4.35379 2.03845 6.7419 2.03845C9.13001 2.03845 11.0887 3.99716 11.0887 6.38527C11.0887 8.77339 9.13001 10.7321 6.7419 10.7321Z" fill="#4F4F4F"/>
</svg>
