<svg width="24" height="24" viewBox="0 0 24 24" fill="none" xmlns="http://www.w3.org/2000/svg">
<path d="M19.7278 22.9642C19.7819 23.2965 19.6518 23.6323 19.3918 23.8308M19.7278 22.9642L18.4859 15.3657L19.3918 23.8308M19.7278 22.9642L18.9876 23.0852L18.9876 23.0851C18.9987 23.1544 18.9684 23.2104 18.9368 23.2346L18.9357 23.2354C18.9215 23.2463 18.9075 23.25 18.8954 23.25C18.8868 23.25 18.8769 23.248 18.8659 23.2419L18.865 23.2414L12.3623 19.6539L12 19.454L11.6377 19.6539L5.13583 23.2405L5.13366 23.2417C5.12118 23.2486 5.1104 23.2503 5.10107 23.2496C5.09173 23.2489 5.07944 23.2455 5.06535 23.2347L5.06407 23.2337C5.03238 23.2095 5.00198 23.1533 5.01329 23.0837L6.25515 15.4858L6.31632 15.1115L6.05121 14.8404L0.792179 9.46232C0.792111 9.46225 0.792043 9.46218 0.791976 9.46211C0.757582 9.42664 0.738441 9.36172 0.757479 9.30059L0.0414105 9.07756L0.757479 9.30059C0.776922 9.23817 0.818698 9.2184 0.83701 9.21555C0.837041 9.21554 0.837071 9.21554 0.837102 9.21553L8.10511 8.10808L8.50061 8.04782L8.67084 7.68578L11.9214 0.773011L11.9214 0.772984C11.9215 0.772833 11.9215 0.772677 11.9216 0.772512C11.922 0.771344 11.9226 0.769687 11.9299 0.765528C11.942 0.758675 11.9665 0.75 12 0.75C12.0335 0.75 12.058 0.758675 12.0701 0.765528C12.0774 0.769687 12.078 0.771344 12.0784 0.772512C12.0785 0.772677 12.0785 0.772832 12.0786 0.772983L12.0786 0.773011L15.3292 7.68578L15.4994 8.04782L15.8949 8.10808L23.1629 9.21553C23.1629 9.21554 23.163 9.21554 23.163 9.21555C23.1821 9.21852 23.2231 9.23804 23.2423 9.30003C23.2614 9.36152 23.2431 9.42554 23.2074 9.4628C23.2072 9.46298 23.207 9.46315 23.2068 9.46333L17.9496 14.8414L17.6845 15.1125L17.7457 15.4867L18.9876 23.0846L19.7278 22.9642ZM19.3918 23.8308C19.2449 23.9433 19.0701 24 18.8954 24C18.7611 24 18.626 23.9663 18.5028 23.8981L19.3918 23.8308Z" stroke="#757A8C" stroke-width="1.5"/>
</svg>
