<svg width="20" height="21" viewBox="0 0 20 21" fill="none" xmlns="http://www.w3.org/2000/svg">
<path d="M12.357 8.69036C12.9821 8.06523 13.3333 7.21739 13.3333 6.33333C13.3333 5.44928 12.9821 4.60143 12.357 3.97631C11.7319 3.35119 10.884 3 9.99996 3C9.1159 3 8.26806 3.35119 7.64294 3.97631C7.01782 4.60143 6.66663 5.44928 6.66663 6.33333C6.66663 7.21739 7.01782 8.06523 7.64294 8.69036C8.26806 9.31548 9.1159 9.66667 9.99996 9.66667C10.884 9.66667 11.7319 9.31548 12.357 8.69036Z" stroke="#757A8C" stroke-width="2" stroke-linecap="round" stroke-linejoin="round"/>
<path d="M5.87517 13.8752C6.96913 12.7812 8.45286 12.1667 9.99996 12.1667C11.5471 12.1667 13.0308 12.7812 14.1248 13.8752C15.2187 14.9692 15.8333 16.4529 15.8333 18H4.16663C4.16663 16.4529 4.78121 14.9692 5.87517 13.8752Z" stroke="#757A8C" stroke-width="2" stroke-linecap="round" stroke-linejoin="round"/>
</svg>
