<svg width="16" height="16" viewBox="0 0 16 16" fill="none" xmlns="http://www.w3.org/2000/svg">
<path d="M14.7881 2.58887L15.3008 2.04883C15.5605 1.77539 15.5811 1.39941 15.3213 1.13965L15.1436 0.955078C14.9111 0.722656 14.5215 0.756836 14.2686 1.00977L13.7354 1.5293L14.7881 2.58887ZM6.69434 9.8623L8.0957 9.27441L14.2891 3.08105L13.2363 2.03516L7.04297 8.23535L6.42773 9.58887C6.35938 9.74609 6.53711 9.92383 6.69434 9.8623ZM4.09668 14.4492H12.0605C13.373 14.4492 14.1455 13.6836 14.1455 12.2207V5.00195L12.7783 6.3623V12.0977C12.7783 12.7539 12.4297 13.082 11.9717 13.082H4.18555C3.55664 13.082 3.21484 12.7539 3.21484 12.0977V4.50293C3.21484 3.84668 3.55664 3.51855 4.18555 3.51855H9.98926L11.3496 2.15137H4.09668C2.62012 2.15137 1.84766 2.91699 1.84766 4.37988V12.2207C1.84766 13.6836 2.62012 14.4492 4.09668 14.4492Z" fill="#1C1C1E"/>
</svg>
