<svg width="24" height="24" viewBox="0 0 24 24" fill="none" xmlns="http://www.w3.org/2000/svg">
<path d="M6.39258 20.1445L16.3945 21.9111C18.3018 22.2451 19.4707 21.1729 19.4707 19.1074V8.2793C19.4707 7.27734 19.2158 6.60938 18.6885 6.14355V4.51758C18.6885 2.54883 17.3525 1.59082 15.1377 1.98633L6.12012 3.57715C5.13574 3.7002 4.52051 4.44727 4.52051 5.58105V17.9824C4.52051 19.1865 5.16211 19.9248 6.39258 20.1445ZM16.6143 5.31738L10.9805 4.32422L15.6826 3.5332C16.5088 3.39258 17.0186 3.73535 17.0186 4.44727V5.39648C16.8867 5.36133 16.7549 5.33496 16.6143 5.31738ZM6.89355 18.4395C6.48047 18.3604 6.27832 18.1055 6.27832 17.6836V5.98535C6.27832 5.53711 6.57715 5.30859 7.06934 5.3877L16.4912 7.04883C17.291 7.18945 17.7129 7.52344 17.7129 8.25293V18.9316C17.7129 19.8193 17.1943 20.2588 16.3594 20.1094L6.89355 18.4395ZM8.43164 9.28125L14.9883 10.4414C15.4277 10.5205 15.7266 10.2393 15.7266 9.82617C15.7266 9.46582 15.542 9.26367 15.1992 9.20215L8.67773 8.05078C8.23828 7.98047 7.92188 8.24414 7.92188 8.64844C7.92188 8.98242 8.10645 9.22852 8.43164 9.28125ZM8.43164 12.6826L14.9883 13.8428C15.4277 13.9131 15.7266 13.6318 15.7266 13.2275C15.7266 12.8584 15.542 12.6562 15.1992 12.5947L8.67773 11.4521C8.23828 11.373 7.92188 11.6455 7.92188 12.041C7.92188 12.3838 8.10645 12.6211 8.43164 12.6826Z" fill="#757A8C"/>
</svg>
