<svg width="32" height="28" viewBox="0 0 32 28" fill="none" xmlns="http://www.w3.org/2000/svg">
<path d="M28.5609 19.6605V10.1877H22.7492V0.714844H9.25079V10.1877H3.43906V19.6606H0V27.2859H5.62524V25.2858H13.1874V27.2859H18.8126V25.2858H26.3748V27.2859H32.0001V19.6605H28.5609ZM26.6859 19.6605H16.9375V12.0627H18.9991V16.3272H24.6243V12.0627H26.6859V19.6605ZM20.8741 12.0627H22.7493V14.4523H20.8741V12.0627ZM15.0624 2.58984H16.9377V4.9794H15.0624V2.58984ZM11.1258 10.1877V2.58984H13.1874V6.85439H18.8126V2.58984H20.8743V10.1877H11.1258ZM9.25067 12.0627H11.1259V14.4523H9.25067V12.0627ZM5.31405 12.0627H7.37567V16.3272H13.0009V12.0627H15.0625V19.6606H5.31405V12.0627ZM30.125 25.4109H28.2498V23.4107H16.9376V25.4109H15.0623V23.4107H3.75024V25.4109H1.875V21.5355H30.125V25.4109Z" fill="#0A0822"/>
</svg>
