<svg width="16" height="16" viewBox="0 0 16 16" fill="none" xmlns="http://www.w3.org/2000/svg">
<path d="M15.1398 1.20476e-06H0.875016C0.623423 -0.000474698 0.39277 0.140075 0.277761 0.363906C0.161165 0.590752 0.181629 0.863919 0.330586 1.07109L5.55661 8.43296C5.55835 8.43549 5.56026 8.43787 5.562 8.44041C5.75188 8.69676 5.85452 9.00721 5.85516 9.32638V15.3284C5.85404 15.5063 5.92384 15.677 6.04916 15.8031C6.17448 15.9292 6.34486 15.9999 6.52253 15.9999C6.61295 15.9999 6.70226 15.9818 6.7857 15.9473L9.72232 14.8275C9.98549 14.7472 10.1602 14.4989 10.1602 14.1999V9.32638C10.1606 9.00737 10.2634 8.69676 10.4531 8.44041C10.4549 8.43787 10.4568 8.43549 10.4585 8.43296L15.6844 1.07078C15.8334 0.86376 15.8538 0.590752 15.7372 0.363906C15.6222 0.140075 15.3916 -0.000474698 15.1398 1.20476e-06ZM9.79831 7.95928C9.50642 8.35538 9.34858 8.8343 9.34763 9.32638V14.1012L6.66736 15.1232V9.32638C6.66641 8.8343 6.50857 8.35538 6.21652 7.95928L1.14295 0.812205H14.872L9.79831 7.95928Z" fill="#4F4F4F"/>
</svg>
