<svg width="29" height="28" viewBox="0 0 29 28" fill="none" xmlns="http://www.w3.org/2000/svg">
<path d="M8.44434 21.8809H20.5469C22.4541 21.8809 23.4473 20.8965 23.4473 19.0156V8.31934C23.4473 6.43848 22.4541 5.4541 20.5469 5.4541H8.44434C6.5459 5.4541 5.55273 6.42969 5.55273 8.31934V19.0156C5.55273 20.8965 6.5459 21.8809 8.44434 21.8809ZM8.43555 20.1318C7.70605 20.1318 7.30176 19.7539 7.30176 18.9805V10.8945C7.30176 10.1211 7.70605 9.74316 8.43555 9.74316H20.5557C21.2852 9.74316 21.6895 10.1211 21.6895 10.8945V18.9805C21.6895 19.7539 21.2852 20.1318 20.5557 20.1318H8.43555ZM12.8037 12.7754H13.3223C13.6387 12.7754 13.7441 12.6787 13.7441 12.3711V11.8525C13.7441 11.5361 13.6387 11.4395 13.3223 11.4395H12.8037C12.4873 11.4395 12.3818 11.5361 12.3818 11.8525V12.3711C12.3818 12.6787 12.4873 12.7754 12.8037 12.7754ZM15.6777 12.7754H16.1963C16.5039 12.7754 16.6094 12.6787 16.6094 12.3711V11.8525C16.6094 11.5361 16.5039 11.4395 16.1963 11.4395H15.6777C15.3613 11.4395 15.2559 11.5361 15.2559 11.8525V12.3711C15.2559 12.6787 15.3613 12.7754 15.6777 12.7754ZM18.543 12.7754H19.0615C19.3779 12.7754 19.4834 12.6787 19.4834 12.3711V11.8525C19.4834 11.5361 19.3779 11.4395 19.0615 11.4395H18.543C18.2354 11.4395 18.1299 11.5361 18.1299 11.8525V12.3711C18.1299 12.6787 18.2354 12.7754 18.543 12.7754ZM9.93848 15.6055H10.4482C10.7646 15.6055 10.8701 15.5088 10.8701 15.1924V14.6738C10.8701 14.3662 10.7646 14.2695 10.4482 14.2695H9.93848C9.62207 14.2695 9.5166 14.3662 9.5166 14.6738V15.1924C9.5166 15.5088 9.62207 15.6055 9.93848 15.6055ZM12.8037 15.6055H13.3223C13.6387 15.6055 13.7441 15.5088 13.7441 15.1924V14.6738C13.7441 14.3662 13.6387 14.2695 13.3223 14.2695H12.8037C12.4873 14.2695 12.3818 14.3662 12.3818 14.6738V15.1924C12.3818 15.5088 12.4873 15.6055 12.8037 15.6055ZM15.6777 15.6055H16.1963C16.5039 15.6055 16.6094 15.5088 16.6094 15.1924V14.6738C16.6094 14.3662 16.5039 14.2695 16.1963 14.2695H15.6777C15.3613 14.2695 15.2559 14.3662 15.2559 14.6738V15.1924C15.2559 15.5088 15.3613 15.6055 15.6777 15.6055ZM18.543 15.6055H19.0615C19.3779 15.6055 19.4834 15.5088 19.4834 15.1924V14.6738C19.4834 14.3662 19.3779 14.2695 19.0615 14.2695H18.543C18.2354 14.2695 18.1299 14.3662 18.1299 14.6738V15.1924C18.1299 15.5088 18.2354 15.6055 18.543 15.6055ZM9.93848 18.4268H10.4482C10.7646 18.4268 10.8701 18.3301 10.8701 18.0225V17.5039C10.8701 17.1875 10.7646 17.0908 10.4482 17.0908H9.93848C9.62207 17.0908 9.5166 17.1875 9.5166 17.5039V18.0225C9.5166 18.3301 9.62207 18.4268 9.93848 18.4268ZM12.8037 18.4268H13.3223C13.6387 18.4268 13.7441 18.3301 13.7441 18.0225V17.5039C13.7441 17.1875 13.6387 17.0908 13.3223 17.0908H12.8037C12.4873 17.0908 12.3818 17.1875 12.3818 17.5039V18.0225C12.3818 18.3301 12.4873 18.4268 12.8037 18.4268ZM15.6777 18.4268H16.1963C16.5039 18.4268 16.6094 18.3301 16.6094 18.0225V17.5039C16.6094 17.1875 16.5039 17.0908 16.1963 17.0908H15.6777C15.3613 17.0908 15.2559 17.1875 15.2559 17.5039V18.0225C15.2559 18.3301 15.3613 18.4268 15.6777 18.4268Z" fill="#0A0822"/>
</svg>
