<svg width="24" height="24" viewBox="0 0 24 24" fill="none" xmlns="http://www.w3.org/2000/svg">
<path d="M12 15.8242C12.2393 15.8174 12.458 15.7285 12.6357 15.5371L17.8311 10.2188C17.9814 10.0684 18.0635 9.87695 18.0635 9.65137C18.0635 9.2002 17.708 8.83789 17.2568 8.83789C17.0381 8.83789 16.8262 8.92676 16.6689 9.08398L12.0068 13.876L7.33105 9.08398C7.17383 8.93359 6.96875 8.83789 6.74316 8.83789C6.29199 8.83789 5.93652 9.2002 5.93652 9.65137C5.93652 9.87695 6.01855 10.0684 6.16895 10.2188L11.3711 15.5371C11.5557 15.7285 11.7607 15.8242 12 15.8242Z" fill="#1C1C1E"/>
</svg>
