<svg width="24" height="24" viewBox="0 0 24 24" fill="none" xmlns="http://www.w3.org/2000/svg">
<path d="M5.02148 19.3711H19.1982C20.877 19.3711 21.8525 18.3955 21.8525 16.5234V6.81152C21.8525 4.93945 20.8682 3.95508 18.9697 3.95508H4.80176C3.12305 3.95508 2.13867 4.93066 2.13867 6.81152V16.5234C2.13867 18.4043 3.12305 19.3711 5.02148 19.3711ZM10.998 11.9795L4.58203 5.63379C4.71387 5.60742 4.86328 5.58984 5.02148 5.58984H18.9697C19.1455 5.58984 19.2949 5.60742 19.4355 5.64258L13.0195 11.9795C12.6504 12.3486 12.334 12.498 12.0088 12.498C11.6836 12.498 11.3672 12.3398 10.998 11.9795ZM3.75586 6.91699L8.55469 11.6367L3.75586 16.3916V6.91699ZM15.4629 11.6367L20.2441 6.94336V16.374L15.4629 11.6367ZM5.02148 17.7451C4.85449 17.7451 4.70508 17.7275 4.56445 17.6924L9.61816 12.6826L10.1016 13.166C10.7344 13.79 11.3584 14.0537 12.0088 14.0537C12.6592 14.0537 13.2832 13.79 13.916 13.166L14.3994 12.6826L19.4443 17.6836C19.3037 17.7275 19.1455 17.7451 18.9697 17.7451H5.02148Z" fill="#757A8C"/>
</svg>
