<svg width="16" height="16" viewBox="0 0 16 16" fill="none" xmlns="http://www.w3.org/2000/svg">
<path d="M14.6485 10.1905C14.6447 10.1866 14.641 10.1828 14.6372 10.179C14.6355 10.1773 14.6335 10.1753 14.6315 10.1735L13.2875 8.82947C12.9098 8.45154 12.4075 8.24353 11.8732 8.24353C11.3422 8.24353 10.8425 8.44916 10.4655 8.82269C10.4627 8.82526 10.4602 8.828 10.4574 8.83057L9.74313 9.54504L6.45364 6.25537L7.16775 5.54108C7.1705 5.53851 7.17306 5.53577 7.17562 5.5332C7.94888 4.75281 7.94686 3.48883 7.16903 2.711L5.82705 1.36884C5.82449 1.36627 5.82211 1.36389 5.81973 1.36151C5.44198 0.984497 4.94009 0.776855 4.40652 0.776855C3.8746 0.776855 3.37435 0.983215 2.99716 1.35767C2.99203 1.36279 2.9869 1.36792 2.98196 1.37323L2.36563 1.98938C2.04135 2.31366 1.79251 2.5625 1.7828 2.57239C0.831019 3.52399 0.608546 5.04102 1.1564 6.84406C1.65811 8.49548 2.76205 10.2326 4.26461 11.7354C6.36227 13.833 8.93124 15.136 10.9687 15.136C11.9763 15.136 12.8268 14.8183 13.4248 14.2201C13.4373 14.2078 13.7813 13.8638 14.1898 13.4553L14.6372 13.0079C14.6379 13.0072 14.6386 13.0065 14.6396 13.0056C15.408 12.2345 15.4154 10.9841 14.6604 10.2037C14.6566 10.1991 14.6524 10.1945 14.6485 10.1905ZM13.6479 12.0084C13.6436 12.0126 13.6394 12.0168 13.6352 12.0212L13.1956 12.4608C12.794 12.8624 12.4549 13.2015 12.4331 13.2231C12.097 13.5593 11.6042 13.7297 10.9687 13.7297C9.31576 13.7297 7.07473 12.5566 5.25906 10.7411C3.91671 9.39874 2.93765 7.86963 2.50186 6.43518C2.1177 5.1712 2.21804 4.12567 2.77761 3.5661L3.35989 2.98383L3.98593 2.35779C3.98831 2.35541 3.9905 2.35321 3.9927 2.35083C4.10421 2.24261 4.2507 2.18311 4.40652 2.18311C4.56308 2.18311 4.71048 2.24335 4.82235 2.35284C4.82382 2.35449 4.82547 2.35614 4.8273 2.35779L6.17459 3.70526C6.40622 3.93689 6.40622 4.31372 6.17459 4.54535C6.17422 4.54572 6.17385 4.54626 6.17331 4.54663V4.54681L4.96188 5.75824C4.6874 6.0329 4.6874 6.47803 4.96188 6.75269L9.246 11.0366C9.37783 11.1686 9.55673 11.2426 9.74313 11.2426C9.92971 11.2426 10.1086 11.1685 10.2404 11.0366L11.4442 9.83252C11.4486 9.82849 11.4528 9.8241 11.457 9.81989C11.5689 9.71021 11.7165 9.64978 11.8732 9.64978C12.0318 9.64978 12.1808 9.71167 12.2931 9.82373L13.6369 11.1674L13.6398 11.1705C13.6413 11.1719 13.6427 11.1734 13.644 11.1749C13.8725 11.4047 13.8736 11.7769 13.6479 12.0084Z" fill="#C1C1C1"/>
</svg>
