<svg width="30" height="30" viewBox="0 0 30 30" fill="none" xmlns="http://www.w3.org/2000/svg">
<path d="M9.01684 12.3039C8.91028 12.1973 8.76246 12.136 8.61178 12.136C8.46111 12.136 8.31335 12.1973 8.20673 12.3039C8.10017 12.4104 8.03886 12.5583 8.03886 12.7089C8.03886 12.8596 8.10017 13.0074 8.20673 13.1139C8.31329 13.2205 8.46111 13.2818 8.61178 13.2818C8.76246 13.2818 8.91028 13.2205 9.01684 13.1139C9.1234 13.0074 9.1847 12.8596 9.1847 12.7089C9.1847 12.5583 9.1234 12.4104 9.01684 12.3039Z" fill="#0A0822"/>
<path d="M27.9479 0.333984H5.1457C4.19798 0.333984 3.42694 1.10501 3.42694 2.05273V11.5631C3.42694 12.5108 4.19798 13.2819 5.1457 13.2819H6.17696C6.49338 13.2819 6.74988 13.0253 6.74988 12.7089C6.74988 12.3926 6.49338 12.136 6.17696 12.136H5.1457C4.82979 12.136 4.57278 11.879 4.57278 11.5631V2.05273C4.57278 1.73682 4.82979 1.47981 5.1457 1.47981H27.9479C28.2638 1.47981 28.5208 1.73682 28.5208 2.05273V11.5631C28.5208 11.879 28.2638 12.136 27.9479 12.136H24.1158C23.9639 12.136 23.8181 12.1964 23.7107 12.3038L21.8241 14.1904L19.9376 12.3038C19.8302 12.1964 19.6844 12.136 19.5325 12.136H15.0645C15.0224 12.0279 14.9748 11.9211 14.9209 11.8164C14.5107 11.0194 13.8124 10.4369 12.9549 10.1762L12.1266 9.92434C11.8349 9.83554 11.5249 9.99092 11.4212 10.2775L10.1196 13.8748C9.75862 14.8725 9.0466 15.7014 8.1148 16.2089L6.89299 16.8741C6.59272 16.5096 6.13811 16.2769 5.6301 16.2769H1.96914C1.06714 16.2769 0.333344 17.0107 0.333344 17.9127V28.0313C0.333229 28.9334 1.06708 29.6672 1.96909 29.6672H5.63005C6.20033 29.6672 6.70307 29.3737 6.99594 28.93L7.58055 29.1593C8.44005 29.4964 9.34406 29.6673 10.2674 29.6673H17.9977C19.1576 29.6673 20.1012 28.7237 20.1012 27.5639C20.1012 27.18 19.9973 26.82 19.8169 26.5099C20.6702 26.2417 21.291 25.4434 21.291 24.5028C21.291 24.1091 21.182 23.7405 20.9931 23.4251C21.8101 23.1361 22.3971 22.3564 22.3971 21.4416C22.3971 20.4889 21.7601 19.6825 20.8898 19.4248C21.0668 19.1168 21.1686 18.7604 21.1686 18.3804C21.1686 17.2206 20.225 16.277 19.0651 16.277H14.4709L15.1134 14.3695C15.2335 14.0129 15.2903 13.6463 15.2864 13.2819H19.2952L21.419 15.4058C21.5309 15.5176 21.6775 15.5736 21.8241 15.5736C21.9708 15.5736 22.1174 15.5176 22.2293 15.4058L24.3532 13.2819H27.9479C28.8956 13.2819 29.6667 12.5108 29.6667 11.5631V2.05273C29.6667 1.10501 28.8956 0.333984 27.9479 0.333984ZM6.12006 28.0314C6.12001 28.3015 5.90024 28.5214 5.63005 28.5214H1.96909C1.6989 28.5214 1.47913 28.3015 1.47913 28.0314V17.9128C1.47913 17.6426 1.6989 17.4228 1.96909 17.4228H3.22665V24.4765C3.22665 24.7929 3.48314 25.0495 3.79957 25.0495C4.11599 25.0495 4.37249 24.7929 4.37249 24.4765V17.4228H5.63005C5.84403 17.4228 6.02593 17.5609 6.09256 17.7525C6.09732 17.7802 6.10419 17.8077 6.11325 17.8349C6.11731 17.8604 6.12006 17.8862 6.12006 17.9128V28.0314ZM19.0651 17.4227C19.5932 17.4227 20.0228 17.8523 20.0228 18.3804C20.0228 18.9084 19.5932 19.3381 19.0651 19.3381H15.957C15.6406 19.3381 15.3841 19.5946 15.3841 19.911C15.3841 20.2274 15.6406 20.4839 15.957 20.4839L20.2936 20.484C20.8217 20.484 21.2513 20.9136 21.2513 21.4416C21.2513 21.9697 20.8217 22.3993 20.2936 22.3993H15.957C15.6406 22.3993 15.3841 22.6559 15.3841 22.9722C15.3841 23.2886 15.6406 23.5452 15.957 23.5452H19.1876C19.7156 23.5452 20.1452 23.9747 20.1452 24.5028C20.1452 25.0308 19.7156 25.4604 19.1876 25.4604H15.957C15.6406 25.4604 15.3841 25.717 15.3841 26.0333C15.3841 26.3497 15.6406 26.6062 15.957 26.6062H17.9978C18.5258 26.6062 18.9554 27.0359 18.9554 27.5639C18.9554 28.092 18.5258 28.5215 17.9978 28.5215H10.2674C9.48786 28.5215 8.72462 28.3772 7.9989 28.0926L7.26585 27.8051V17.9758L8.66268 17.2152C9.84066 16.5738 10.7407 15.526 11.197 14.2647L12.3136 11.1789L12.6216 11.2725C13.1802 11.4423 13.6349 11.8217 13.9022 12.3408C14.1694 12.8598 14.2139 13.4505 14.0275 14.0037L13.1305 16.6669C13.0716 16.8418 13.1005 17.0343 13.2081 17.184C13.3158 17.3338 13.4889 17.4227 13.6734 17.4227H19.0651Z" fill="#0A0822"/>
<path d="M27.0428 5.88987C26.9343 5.55621 26.6512 5.31759 26.3039 5.26723L25.2905 5.12028L24.837 4.20218C24.6817 3.8876 24.3673 3.69223 24.0165 3.69223C23.6655 3.69235 23.3509 3.88788 23.1957 4.20258L22.7427 5.12097L21.7294 5.26849C21.3821 5.31908 21.0991 5.55781 20.9908 5.89159C20.8824 6.22532 20.9712 6.58482 21.2226 6.82974L21.9561 7.54428L21.7832 8.55358C21.724 8.89951 21.8635 9.2424 22.1475 9.44865C22.308 9.56512 22.4955 9.62425 22.6845 9.62425C22.83 9.62425 22.9763 9.58913 23.1115 9.51803L24.0178 9.04125L24.9243 9.51751C25.2349 9.68068 25.6042 9.65392 25.8881 9.44756C26.172 9.24119 26.3113 8.89819 26.2519 8.55232L26.0786 7.54313L26.8117 6.82814C27.0627 6.58304 27.1514 6.22354 27.0428 5.88987ZM25.1916 6.80751C24.9759 7.01783 24.8776 7.32073 24.9286 7.61767L25.0434 8.2858L24.443 7.97036C24.1762 7.83045 23.8579 7.83045 23.5914 7.9707L22.9914 8.28638L23.1058 7.61819C23.1567 7.32113 23.0582 7.01829 22.8424 6.80808L22.3567 6.33497L23.0277 6.23729C23.3259 6.19392 23.5834 6.00669 23.7166 5.73651L24.0165 5.12847L24.3167 5.73633C24.4502 6.00646 24.7078 6.19352 25.0059 6.23677L25.6769 6.33405L25.1916 6.80751Z" fill="#0A0822"/>
<path d="M19.7544 5.88987C19.6459 5.55621 19.3628 5.31765 19.0155 5.26723L18.0021 5.12028L17.5486 4.20218C17.3933 3.8876 17.0789 3.69223 16.728 3.69223C16.7281 3.69223 16.728 3.69223 16.728 3.69223C16.3771 3.69235 16.0624 3.88788 15.9072 4.20264L15.4543 5.12097L14.441 5.26849C14.0937 5.31908 13.8107 5.55781 13.7023 5.89159C13.594 6.22532 13.6828 6.58482 13.9342 6.82974L14.6677 7.54428L14.4948 8.55358C14.4356 8.89951 14.5752 9.24246 14.8591 9.44865C15.0195 9.56512 15.2071 9.62425 15.396 9.62425C15.5415 9.62425 15.6878 9.58913 15.8229 9.51803L16.7292 9.04125L17.6358 9.51751C17.9465 9.68068 18.3157 9.65392 18.5997 9.44756C18.8835 9.24119 19.0229 8.89819 18.9635 8.55232L18.7901 7.54313L19.5233 6.82814C19.7744 6.58304 19.863 6.2236 19.7544 5.88987ZM17.9032 6.80751C17.6875 7.01783 17.5892 7.32073 17.6402 7.61767L17.7549 8.2858L17.1546 7.97041C16.8878 7.83034 16.5694 7.83051 16.3029 7.9707L15.7029 8.28638L15.8173 7.61819C15.8682 7.32113 15.7697 7.01829 15.5539 6.80808L15.0682 6.33497L15.7391 6.23729C16.0373 6.19392 16.2948 6.00675 16.4282 5.73645L16.728 5.12841L17.0282 5.73622C17.1616 6.00641 17.4193 6.19352 17.7175 6.23677L18.3884 6.33405L17.9032 6.80751Z" fill="#0A0822"/>
<path d="M12.4663 5.88987C12.3577 5.55621 12.0746 5.31759 11.7273 5.26723L10.7139 5.12028L10.2605 4.20218C10.1051 3.8876 9.79074 3.69223 9.43989 3.69223C9.43994 3.69223 9.43983 3.69223 9.43989 3.69223C9.08897 3.69235 8.77427 3.88788 8.61907 4.20264L8.16617 5.12097L7.15279 5.26849C6.80549 5.31908 6.52253 5.55787 6.41413 5.89165C6.30579 6.22537 6.39465 6.58488 6.64599 6.82974L7.37944 7.54428L7.20659 8.55358C7.14735 8.89951 7.28697 9.24246 7.57091 9.44865C7.73127 9.56512 7.9189 9.62425 8.10779 9.62425C8.25331 9.62425 8.39958 9.58913 8.53473 9.51803L9.44103 9.04125L10.3476 9.51751C10.6582 9.68068 11.0275 9.65392 11.3114 9.44756C11.5952 9.24119 11.7346 8.89819 11.6752 8.55232L11.5018 7.54313L12.235 6.82814C12.4862 6.58304 12.5748 6.2236 12.4663 5.88987ZM10.615 6.80751C10.3993 7.01783 10.301 7.32073 10.352 7.61767L10.4668 8.2858L9.86643 7.97041C9.59968 7.83034 9.28119 7.83051 9.01478 7.9707L8.41476 8.28638L8.52923 7.61801C8.57999 7.32107 8.48151 7.01834 8.26575 6.80808L7.78008 6.33497L8.45097 6.23729C8.74912 6.19392 9.00665 6.00675 9.14002 5.73645L9.43989 5.12841L9.74004 5.73622C9.87341 6.00641 10.1311 6.19352 10.4293 6.23677L11.1003 6.33405L10.615 6.80751Z" fill="#0A0822"/>
<path d="M3.7996 25.9638C3.48317 25.9638 3.22668 26.2204 3.22668 26.5367V26.5457C3.22668 26.862 3.48317 27.1186 3.7996 27.1186C4.11602 27.1186 4.37252 26.862 4.37252 26.5457V26.5367C4.37252 26.2204 4.11602 25.9638 3.7996 25.9638Z" fill="#0A0822"/>
<path d="M16.728 3.69223C17.0789 3.69223 17.3933 3.8876 17.5486 4.20218L18.0021 5.12028L19.0155 5.26723C19.3628 5.31765 19.6459 5.55621 19.7544 5.88987C19.863 6.2236 19.7744 6.58304 19.5233 6.82814L18.7901 7.54313L18.9635 8.55232C19.0229 8.89819 18.8835 9.24119 18.5997 9.44756C18.3157 9.65392 17.9465 9.68068 17.6358 9.51751L16.7292 9.04125L15.8229 9.51803C15.6878 9.58913 15.5415 9.62425 15.396 9.62425C15.2071 9.62425 15.0195 9.56512 14.8591 9.44865C14.5752 9.24246 14.4356 8.89951 14.4948 8.55358L14.6677 7.54428L13.9342 6.82974C13.6828 6.58482 13.594 6.22532 13.7023 5.89159C13.8107 5.55781 14.0937 5.31908 14.441 5.26849L15.4543 5.12097L15.9072 4.20264C16.0624 3.88788 16.3771 3.69235 16.728 3.69223ZM16.728 3.69223C16.728 3.69223 16.7281 3.69223 16.728 3.69223ZM9.43989 3.69223C9.79074 3.69223 10.1051 3.8876 10.2605 4.20218L10.7139 5.12028L11.7273 5.26723C12.0746 5.31759 12.3577 5.55621 12.4663 5.88987C12.5748 6.2236 12.4862 6.58304 12.235 6.82814L11.5018 7.54313L11.6752 8.55232C11.7346 8.89819 11.5952 9.24119 11.3114 9.44756C11.0275 9.65392 10.6582 9.68068 10.3476 9.51751L9.44103 9.04125L8.53473 9.51803C8.39958 9.58913 8.25332 9.62425 8.10779 9.62425C7.9189 9.62425 7.73127 9.56512 7.57091 9.44865C7.28697 9.24246 7.14735 8.89951 7.20659 8.55358L7.37944 7.54428L6.64599 6.82974C6.39465 6.58488 6.30579 6.22537 6.41413 5.89165C6.52253 5.55787 6.80549 5.31908 7.15279 5.26849L8.16617 5.12097L8.61907 4.20264C8.77427 3.88788 9.08897 3.69235 9.43989 3.69223ZM9.43989 3.69223C9.43983 3.69223 9.43994 3.69223 9.43989 3.69223ZM9.01684 12.3039C8.91028 12.1973 8.76246 12.136 8.61178 12.136C8.46111 12.136 8.31335 12.1973 8.20673 12.3039C8.10017 12.4104 8.03886 12.5583 8.03886 12.7089C8.03886 12.8596 8.10017 13.0074 8.20673 13.1139C8.31329 13.2205 8.46111 13.2818 8.61178 13.2818C8.76246 13.2818 8.91028 13.2205 9.01684 13.1139C9.1234 13.0074 9.1847 12.8596 9.1847 12.7089C9.1847 12.5583 9.1234 12.4104 9.01684 12.3039ZM27.9479 0.333984H5.1457C4.19798 0.333984 3.42694 1.10501 3.42694 2.05273V11.5631C3.42694 12.5108 4.19798 13.2819 5.1457 13.2819H6.17696C6.49338 13.2819 6.74988 13.0253 6.74988 12.7089C6.74988 12.3926 6.49338 12.136 6.17696 12.136H5.1457C4.82979 12.136 4.57278 11.879 4.57278 11.5631V2.05273C4.57278 1.73682 4.82979 1.47981 5.1457 1.47981H27.9479C28.2638 1.47981 28.5208 1.73682 28.5208 2.05273V11.5631C28.5208 11.879 28.2638 12.136 27.9479 12.136H24.1158C23.9639 12.136 23.8181 12.1964 23.7107 12.3038L21.8241 14.1904L19.9376 12.3038C19.8302 12.1964 19.6844 12.136 19.5325 12.136H15.0645C15.0224 12.0279 14.9748 11.9211 14.9209 11.8164C14.5107 11.0194 13.8124 10.4369 12.9549 10.1762L12.1266 9.92434C11.8349 9.83554 11.5249 9.99092 11.4212 10.2775L10.1196 13.8748C9.75862 14.8725 9.0466 15.7014 8.1148 16.2089L6.89299 16.8741C6.59272 16.5096 6.13811 16.2769 5.6301 16.2769H1.96914C1.06714 16.2769 0.333344 17.0107 0.333344 17.9127V28.0313C0.333229 28.9334 1.06708 29.6672 1.96909 29.6672H5.63005C6.20033 29.6672 6.70307 29.3737 6.99594 28.93L7.58055 29.1593C8.44005 29.4964 9.34406 29.6673 10.2674 29.6673H17.9977C19.1576 29.6673 20.1012 28.7237 20.1012 27.5639C20.1012 27.18 19.9973 26.82 19.8169 26.5099C20.6702 26.2417 21.291 25.4434 21.291 24.5028C21.291 24.1091 21.182 23.7405 20.9931 23.4251C21.8101 23.1361 22.3971 22.3564 22.3971 21.4416C22.3971 20.4889 21.7601 19.6825 20.8898 19.4248C21.0668 19.1168 21.1686 18.7604 21.1686 18.3804C21.1686 17.2206 20.225 16.277 19.0651 16.277H14.4709L15.1134 14.3695C15.2335 14.0129 15.2903 13.6463 15.2864 13.2819H19.2952L21.419 15.4058C21.5309 15.5176 21.6775 15.5736 21.8241 15.5736C21.9708 15.5736 22.1174 15.5176 22.2293 15.4058L24.3532 13.2819H27.9479C28.8956 13.2819 29.6667 12.5108 29.6667 11.5631V2.05273C29.6667 1.10501 28.8956 0.333984 27.9479 0.333984ZM6.12006 28.0314C6.12001 28.3015 5.90024 28.5214 5.63005 28.5214H1.96909C1.6989 28.5214 1.47913 28.3015 1.47913 28.0314V17.9128C1.47913 17.6426 1.6989 17.4228 1.96909 17.4228H3.22665V24.4765C3.22665 24.7929 3.48314 25.0495 3.79957 25.0495C4.11599 25.0495 4.37249 24.7929 4.37249 24.4765V17.4228H5.63005C5.84403 17.4228 6.02593 17.5609 6.09256 17.7525C6.09732 17.7802 6.10419 17.8077 6.11325 17.8349C6.11731 17.8604 6.12006 17.8862 6.12006 17.9128V28.0314ZM19.0651 17.4227C19.5932 17.4227 20.0228 17.8523 20.0228 18.3804C20.0228 18.9084 19.5932 19.3381 19.0651 19.3381H15.957C15.6406 19.3381 15.3841 19.5946 15.3841 19.911C15.3841 20.2274 15.6406 20.4839 15.957 20.4839L20.2936 20.484C20.8217 20.484 21.2513 20.9136 21.2513 21.4416C21.2513 21.9697 20.8217 22.3993 20.2936 22.3993H15.957C15.6406 22.3993 15.3841 22.6559 15.3841 22.9722C15.3841 23.2886 15.6406 23.5452 15.957 23.5452H19.1876C19.7156 23.5452 20.1452 23.9747 20.1452 24.5028C20.1452 25.0308 19.7156 25.4604 19.1876 25.4604H15.957C15.6406 25.4604 15.3841 25.717 15.3841 26.0333C15.3841 26.3497 15.6406 26.6062 15.957 26.6062H17.9978C18.5258 26.6062 18.9554 27.0359 18.9554 27.5639C18.9554 28.092 18.5258 28.5215 17.9978 28.5215H10.2674C9.48786 28.5215 8.72462 28.3772 7.9989 28.0926L7.26585 27.8051V17.9758L8.66268 17.2152C9.84066 16.5738 10.7407 15.526 11.197 14.2647L12.3136 11.1789L12.6216 11.2725C13.1802 11.4423 13.6349 11.8217 13.9022 12.3408C14.1694 12.8598 14.2139 13.4505 14.0275 14.0037L13.1305 16.6669C13.0716 16.8418 13.1005 17.0343 13.2081 17.184C13.3158 17.3338 13.4889 17.4227 13.6734 17.4227H19.0651ZM27.0428 5.88987C26.9343 5.55621 26.6512 5.31759 26.3039 5.26723L25.2905 5.12028L24.8371 4.20218C24.6817 3.8876 24.3673 3.69223 24.0165 3.69223C23.6655 3.69235 23.3509 3.88788 23.1957 4.20258L22.7427 5.12097L21.7294 5.26849C21.3821 5.31908 21.0991 5.55781 20.9908 5.89159C20.8824 6.22532 20.9712 6.58482 21.2226 6.82974L21.9561 7.54428L21.7832 8.55358C21.724 8.89951 21.8635 9.2424 22.1475 9.44865C22.308 9.56512 22.4955 9.62425 22.6845 9.62425C22.83 9.62425 22.9763 9.58913 23.1115 9.51803L24.0178 9.04125L24.9243 9.51751C25.2349 9.68068 25.6042 9.65392 25.8881 9.44756C26.172 9.24119 26.3113 8.89819 26.2519 8.55232L26.0786 7.54313L26.8117 6.82814C27.0627 6.58304 27.1514 6.22354 27.0428 5.88987ZM25.1916 6.80751C24.9759 7.01783 24.8776 7.32073 24.9286 7.61767L25.0434 8.2858L24.443 7.97036C24.1762 7.83045 23.8579 7.83045 23.5914 7.9707L22.9914 8.28638L23.1058 7.61819C23.1567 7.32113 23.0582 7.01829 22.8424 6.80808L22.3567 6.33497L23.0277 6.23729C23.3259 6.19392 23.5834 6.00669 23.7166 5.73651L24.0165 5.12847L24.3167 5.73633C24.4502 6.00646 24.7078 6.19352 25.0059 6.23677L25.6769 6.33405L25.1916 6.80751ZM17.9032 6.80751C17.6875 7.01783 17.5892 7.32073 17.6402 7.61767L17.7549 8.2858L17.1546 7.97041C16.8878 7.83034 16.5694 7.83051 16.3029 7.9707L15.7029 8.28638L15.8173 7.61819C15.8682 7.32113 15.7697 7.01829 15.5539 6.80808L15.0682 6.33497L15.7391 6.23729C16.0373 6.19392 16.2948 6.00675 16.4282 5.73645L16.728 5.12841L17.0282 5.73622C17.1616 6.00641 17.4193 6.19352 17.7175 6.23677L18.3884 6.33405L17.9032 6.80751ZM10.615 6.80751C10.3993 7.01783 10.301 7.32073 10.352 7.61767L10.4668 8.2858L9.86643 7.97041C9.59967 7.83034 9.28119 7.83051 9.01478 7.9707L8.41476 8.28638L8.52923 7.61801C8.57999 7.32107 8.48151 7.01834 8.26575 6.80808L7.78008 6.33497L8.45097 6.23729C8.74912 6.19392 9.00665 6.00675 9.14002 5.73645L9.43989 5.12841L9.74004 5.73622C9.87342 6.00641 10.1311 6.19352 10.4293 6.23677L11.1003 6.33405L10.615 6.80751ZM3.7996 25.9638C3.48317 25.9638 3.22668 26.2204 3.22668 26.5367V26.5457C3.22668 26.862 3.48317 27.1186 3.7996 27.1186C4.11602 27.1186 4.37252 26.862 4.37252 26.5457V26.5367C4.37252 26.2204 4.11602 25.9638 3.7996 25.9638Z" stroke="#0A0822" stroke-width="0.5"/>
</svg>
