<svg width="28" height="28" viewBox="0 0 28 28" fill="none" xmlns="http://www.w3.org/2000/svg">
<path d="M3.26855 12.3887C3.26855 12.8457 3.61133 13.2324 4.17383 13.2324C4.44629 13.2324 4.68359 13.083 4.89453 12.9072L13.6309 5.58594C13.8682 5.375 14.1406 5.375 14.3779 5.58594L23.1055 12.9072C23.3164 13.083 23.5537 13.2324 23.8262 13.2324C24.3359 13.2324 24.7227 12.916 24.7227 12.415C24.7227 12.1162 24.6084 11.8789 24.3799 11.6943L21.9102 9.61133V5.98145C21.9102 5.58594 21.6553 5.33105 21.2686 5.33105H20.082C19.6865 5.33105 19.4229 5.58594 19.4229 5.98145V7.52832L15.2393 4.00391C14.4834 3.37109 13.5342 3.37109 12.7695 4.00391L3.61133 11.6943C3.38281 11.8877 3.26855 12.1426 3.26855 12.3887ZM6.11621 20.29C6.11621 21.5557 6.90723 22.3115 8.19922 22.3115H19.792C21.0928 22.3115 21.8838 21.5557 21.8838 20.29V13.5928L14.5361 7.43164C14.2021 7.1416 13.7891 7.15039 13.4551 7.43164L6.11621 13.584V20.29ZM16.2939 20.5361H11.6885V14.8848C11.6885 14.4717 11.9609 14.208 12.374 14.208H15.6172C16.0303 14.208 16.2939 14.4717 16.2939 14.8848V20.5361Z" fill="#1C1C1E"/>
</svg>
