<svg width="32" height="32" viewBox="0 0 32 32" fill="none" xmlns="http://www.w3.org/2000/svg">
<g clip-path="url(#clip0_872_12389)">
<path d="M29.3958 6.0625H2.60425C1.16821 6.0625 0 7.23071 0 8.66675V23.3081C0 24.7441 1.16821 25.9124 2.60425 25.9124H29.3958C30.8318 25.9124 32 24.7441 32 23.3081V8.66675C32 7.23071 30.8318 6.0625 29.3958 6.0625V6.0625ZM30.0574 23.3079C30.0574 23.6729 29.7605 23.9697 29.3958 23.9697H2.60425C2.2395 23.9697 1.94263 23.6729 1.94263 23.3079V8.66675C1.94263 8.302 2.2395 8.00513 2.60425 8.00513H29.3958C29.7605 8.00513 30.0574 8.302 30.0574 8.66675V23.3079Z" fill="#0A0822"/>
<path d="M12.8992 15.7155C14.0146 14.348 13.9353 12.3246 12.6611 11.0504C11.3025 9.69153 9.09129 9.69153 7.73241 11.0504C6.45824 12.3246 6.37889 14.348 7.49437 15.7155C6.51683 16.2186 5.67918 16.9896 5.1035 17.9608C4.61644 18.7823 4.60863 19.7704 5.08324 20.6036C5.56224 21.4442 6.42455 21.9459 7.39037 21.9459H13.0032C13.9687 21.9459 14.8313 21.4442 15.31 20.6036C15.7847 19.7704 15.7771 18.7823 15.29 17.9608C14.7143 16.9896 13.8767 16.2186 12.8992 15.7155ZM13.6221 19.642C13.5603 19.7506 13.376 20.0033 13.0032 20.0033H7.39037C7.01732 20.0033 6.83324 19.7506 6.77123 19.642C6.71141 19.537 6.59178 19.2594 6.7744 18.9513C7.48802 17.7477 8.7993 16.9999 10.1968 16.9999C11.594 16.9999 12.9053 17.7477 13.6189 18.9513C13.8015 19.2594 13.6821 19.537 13.6221 19.642ZM9.10619 12.4239C9.40672 12.1232 9.80174 11.973 10.1968 11.973C10.5918 11.973 10.9868 12.1232 11.2876 12.4239C11.8889 13.0253 11.8889 14.004 11.2876 14.6053C10.686 15.2069 9.7075 15.2069 9.10619 14.6053C8.50462 14.004 8.50462 13.0253 9.10619 12.4239Z" fill="#0A0822"/>
<path d="M26.9312 11.3438H20.2017C19.6653 11.3438 19.2305 11.7786 19.2305 12.3149C19.2305 12.8516 19.6653 13.2864 20.2017 13.2864H26.9312C27.4675 13.2864 27.9026 12.8516 27.9026 12.3149C27.9026 11.7786 27.4675 11.3438 26.9312 11.3438Z" fill="#0A0822"/>
<path d="M26.9312 15.0156H20.2017C19.6653 15.0156 19.2305 15.4504 19.2305 15.9868C19.2305 16.5234 19.6653 16.9583 20.2017 16.9583H26.9312C27.4675 16.9583 27.9026 16.5234 27.9026 15.9868C27.9026 15.4504 27.4675 15.0156 26.9312 15.0156Z" fill="#0A0822"/>
<path d="M25.4951 18.6895H20.2017C19.6653 18.6895 19.2305 19.1243 19.2305 19.6606C19.2305 20.1973 19.6653 20.6321 20.2017 20.6321H25.4951C26.0315 20.6321 26.4666 20.1973 26.4666 19.6606C26.4666 19.1243 26.0315 18.6895 25.4951 18.6895Z" fill="#0A0822"/>
</g>
<defs>
<clipPath id="clip0_872_12389">
<rect width="32" height="32" fill="white"/>
</clipPath>
</defs>
</svg>
