<svg width="17" height="19" viewBox="0 0 17 19" fill="none" xmlns="http://www.w3.org/2000/svg">
<path fill-rule="evenodd" clip-rule="evenodd" d="M8.5001 7.80001C9.45488 7.80001 10.3706 7.42072 11.0457 6.74559C11.7208 6.07046 12.1001 5.15479 12.1001 4.20001C12.1001 3.24523 11.7208 2.32955 11.0457 1.65442C10.3706 0.979291 9.45488 0.600006 8.5001 0.600006C7.54532 0.600006 6.62964 0.979291 5.95451 1.65442C5.27938 2.32955 4.9001 3.24523 4.9001 4.20001C4.9001 5.15479 5.27938 6.07046 5.95451 6.74559C6.62964 7.42072 7.54532 7.80001 8.5001 7.80001ZM0.100098 18.6C0.100098 17.4969 0.31737 16.4046 0.73951 15.3855C1.16165 14.3663 1.78039 13.4403 2.5604 12.6603C3.34041 11.8803 4.26642 11.2616 5.28556 10.8394C6.30469 10.4173 7.39699 10.2 8.5001 10.2C9.6032 10.2 10.6955 10.4173 11.7146 10.8394C12.7338 11.2616 13.6598 11.8803 14.4398 12.6603C15.2198 13.4403 15.8385 14.3663 16.2607 15.3855C16.6828 16.4046 16.9001 17.4969 16.9001 18.6H0.100098Z" fill="#232325"/>
<path fill-rule="evenodd" clip-rule="evenodd" d="M8.5001 7.80001C9.45488 7.80001 10.3706 7.42072 11.0457 6.74559C11.7208 6.07046 12.1001 5.15479 12.1001 4.20001C12.1001 3.24523 11.7208 2.32955 11.0457 1.65442C10.3706 0.979291 9.45488 0.600006 8.5001 0.600006C7.54532 0.600006 6.62964 0.979291 5.95451 1.65442C5.27938 2.32955 4.9001 3.24523 4.9001 4.20001C4.9001 5.15479 5.27938 6.07046 5.95451 6.74559C6.62964 7.42072 7.54532 7.80001 8.5001 7.80001ZM0.100098 18.6C0.100098 17.4969 0.31737 16.4046 0.73951 15.3855C1.16165 14.3663 1.78039 13.4403 2.5604 12.6603C3.34041 11.8803 4.26642 11.2616 5.28556 10.8394C6.30469 10.4173 7.39699 10.2 8.5001 10.2C9.6032 10.2 10.6955 10.4173 11.7146 10.8394C12.7338 11.2616 13.6598 11.8803 14.4398 12.6603C15.2198 13.4403 15.8385 14.3663 16.2607 15.3855C16.6828 16.4046 16.9001 17.4969 16.9001 18.6H0.100098Z" fill="url(#paint0_radial_2318_8975)"/>
<defs>
<radialGradient id="paint0_radial_2318_8975" cx="0" cy="0" r="1" gradientUnits="userSpaceOnUse" gradientTransform="translate(10.3376 5.38126) rotate(127.875) scale(12.827 12.6395)">
<stop stop-color="#3D3B54"/>
<stop offset="1" stop-color="#16142E"/>
</radialGradient>
</defs>
</svg>
