<svg width="32" height="32" viewBox="0 0 32 32" fill="none" xmlns="http://www.w3.org/2000/svg">
<path d="M29.1328 25.5211C29.7133 24.8184 30.0625 23.918 30.0625 22.9375C30.0625 20.6974 28.2401 18.875 26 18.875C23.7599 18.875 21.9375 20.6974 21.9375 22.9375C21.9375 23.918 22.2867 24.8184 22.8672 25.5211C22.1245 25.8483 21.4818 26.3618 21 27.0033C20.5182 26.3618 19.8755 25.8483 19.1328 25.5211C19.7133 24.8184 20.0625 23.918 20.0625 22.9375C20.0625 20.6974 18.2401 18.875 16 18.875C13.7599 18.875 11.9375 20.6974 11.9375 22.9375C11.9375 23.918 12.2867 24.8184 12.8672 25.5211C12.1245 25.8483 11.4818 26.3618 11 27.0033C10.5182 26.3618 9.8755 25.8483 9.13281 25.5211C9.71331 24.8184 10.0625 23.918 10.0625 22.9375C10.0625 20.6974 8.24006 18.875 6 18.875C3.75994 18.875 1.9375 20.6974 1.9375 22.9375C1.9375 23.918 2.28669 24.8184 2.86719 25.5211C1.21756 26.2477 0.0625 27.8973 0.0625 29.8125V31.0625C0.0625 31.5802 0.48225 32 1 32H31C31.5177 32 31.9375 31.5802 31.9375 31.0625V29.8125C31.9375 27.8973 30.7824 26.2477 29.1328 25.5211ZM26 20.75C27.2062 20.75 28.1875 21.7313 28.1875 22.9375C28.1875 24.1437 27.2062 25.125 26 25.125C24.7938 25.125 23.8125 24.1437 23.8125 22.9375C23.8125 21.7313 24.7938 20.75 26 20.75ZM16 20.75C17.2062 20.75 18.1875 21.7313 18.1875 22.9375C18.1875 24.1437 17.2062 25.125 16 25.125C14.7938 25.125 13.8125 24.1437 13.8125 22.9375C13.8125 21.7313 14.7938 20.75 16 20.75ZM6 20.75C7.20619 20.75 8.1875 21.7313 8.1875 22.9375C8.1875 24.1437 7.20619 25.125 6 25.125C4.79381 25.125 3.8125 24.1437 3.8125 22.9375C3.8125 21.7313 4.79381 20.75 6 20.75ZM1.9375 29.8125C1.9375 28.2617 3.19919 27 4.75 27H7.25C8.80081 27 10.0625 28.2617 10.0625 29.8125V30.125H1.9375V29.8125ZM11.9375 29.8125C11.9375 28.2617 13.1992 27 14.75 27H17.25C18.8008 27 20.0625 28.2617 20.0625 29.8125V30.125H11.9375V29.8125ZM30.0625 30.125H21.9375V29.8125C21.9375 28.2617 23.1992 27 24.75 27H27.25C28.8008 27 30.0625 28.2617 30.0625 29.8125V30.125Z" fill="#0A0822"/>
<path d="M11.8933 8.16006L11.4161 10.9419C11.323 11.4851 11.5421 12.0239 11.988 12.3478C12.2399 12.5309 12.5347 12.6239 12.8315 12.6239C13.06 12.6239 13.2896 12.5687 13.5017 12.4572L16 11.1438L18.4983 12.4572C18.9862 12.7136 19.5661 12.6718 20.012 12.3478C20.4579 12.0238 20.677 11.4851 20.5838 10.9419L20.1067 8.16006L22.1278 6.18994C22.5225 5.80525 22.6619 5.24069 22.4916 4.7165C22.3213 4.19225 21.8766 3.81744 21.3313 3.73825L18.5381 3.33238L17.289 0.80125C17.0451 0.307 16.5511 0 16 0C15.4489 0 14.955 0.307 14.711 0.80125L13.4619 3.33225L10.6688 3.73813C10.1233 3.81738 9.67871 4.19219 9.5084 4.71637C9.33809 5.24056 9.47746 5.80513 9.87215 6.18981L11.8933 8.16006ZM16.4363 9.25475C16.2997 9.183 16.1498 9.14706 16 9.14706C15.8502 9.14706 15.7003 9.18294 15.5638 9.25475L13.4141 10.3849L13.8246 7.99119C13.8768 7.68706 13.776 7.37675 13.555 7.16138L11.8159 5.46613L14.2193 5.11688C14.5247 5.0725 14.7886 4.88075 14.9252 4.60406L16 2.42619L17.0748 4.60406C17.2114 4.88075 17.4754 5.0725 17.7807 5.11688L20.1841 5.46613L18.445 7.16138C18.2241 7.37675 18.1233 7.68706 18.1754 7.99119L18.586 10.3849L16.4363 9.25475Z" fill="#0A0822"/>
<path d="M2.02001 11.6278L1.66739 13.6836C1.58145 14.1848 1.78357 14.6818 2.19501 14.9808C2.60645 15.2796 3.14164 15.3183 3.59176 15.0817L5.43795 14.1111L7.28414 15.0817C7.47995 15.1846 7.69176 15.2354 7.90257 15.2354C8.17639 15.2354 8.44845 15.1496 8.68089 14.9808C9.09232 14.6818 9.29451 14.1848 9.20851 13.6835L8.85589 11.6278L10.3494 10.1719C10.7136 9.81694 10.8422 9.296 10.6851 8.81238C10.5279 8.32875 10.1178 7.98281 9.61439 7.90963L7.55032 7.60969L6.62726 5.73931C6.4022 5.28325 5.94651 5 5.43795 5C4.92939 5 4.4737 5.28325 4.24857 5.73931L3.32551 7.60969L1.26132 7.90963C0.758073 7.98281 0.347886 8.32875 0.190761 8.81238C0.0336356 9.296 0.162261 9.81694 0.526386 10.1719L2.02001 11.6278ZM4.08289 9.39431C4.38826 9.34994 4.6522 9.15819 4.78876 8.8815L5.43795 7.56613L6.08714 8.8815C6.2237 9.15819 6.4877 9.34994 6.79301 9.39431L8.24464 9.60525L7.1942 10.6292C6.97326 10.8446 6.87245 11.1549 6.92457 11.459L7.17251 12.9047L5.8742 12.2221C5.60114 12.0785 5.27476 12.0785 5.0017 12.2221L3.70339 12.9047L3.95132 11.459C4.00345 11.1549 3.90264 10.8446 3.6817 10.6292L2.63126 9.60525L4.08289 9.39431Z" fill="#0A0822"/>
<path d="M21.3158 8.81238C21.1586 9.296 21.2873 9.81694 21.6514 10.1719L23.1449 11.6278L22.7923 13.6836C22.7064 14.1848 22.9085 14.6818 23.3199 14.9808C23.7314 15.2796 24.2666 15.3183 24.7167 15.0817L26.5629 14.1111L28.4091 15.0817C28.6049 15.1846 28.8167 15.2354 29.0275 15.2354C29.3013 15.2354 29.5734 15.1496 29.8058 14.9808C30.2173 14.6818 30.4194 14.1848 30.3334 13.6835L29.9808 11.6278L31.4744 10.1719C31.8385 9.81694 31.9671 9.296 31.81 8.81238C31.6529 8.32875 31.2427 7.98281 30.7393 7.90963L28.6753 7.60969L27.7521 5.73931C27.5272 5.28325 27.0715 5 26.5629 5C26.0544 5 25.5987 5.28325 25.3736 5.73931L24.4506 7.60969L22.3864 7.90963C21.8831 7.98281 21.4729 8.32875 21.3158 8.81238ZM25.2079 9.39431C25.5133 9.34994 25.7772 9.15819 25.9138 8.8815L26.5629 7.56613L27.2121 8.8815C27.3487 9.15819 27.6127 9.34994 27.918 9.39431L29.3696 9.60525L28.3192 10.6292C28.0983 10.8446 27.9974 11.1549 28.0496 11.459L28.2975 12.9047L26.9992 12.2221C26.7261 12.0785 26.3998 12.0785 26.1267 12.2221L24.8284 12.9047L25.0763 11.459C25.1284 11.1549 25.0276 10.8446 24.8067 10.6292L23.7563 9.60525L25.2079 9.39431Z" fill="#0A0822"/>
</svg>
