<svg width="24" height="24" viewBox="0 0 24 24" fill="none" xmlns="http://www.w3.org/2000/svg">
<path d="M12 11.6807C12.5361 11.6807 12.8965 11.2939 12.8965 10.7314V2.99707C12.8965 2.42578 12.5361 2.04785 12 2.04785C11.4639 2.04785 11.1035 2.42578 11.1035 2.99707V10.7314C11.1035 11.2939 11.4639 11.6807 12 11.6807ZM12 20.7334C16.9658 20.7334 21.0791 16.6289 21.0791 11.6543C21.0791 9 19.9014 6.6709 18.249 5.12402C17.3525 4.25391 16.0869 5.44043 17.0098 6.37207C18.416 7.69043 19.2861 9.5625 19.2949 11.6543C19.2949 15.6973 16.043 18.9492 12 18.9492C7.95703 18.9492 4.71387 15.6973 4.71387 11.6543C4.72266 9.55371 5.59277 7.68164 6.99023 6.36328C7.92188 5.42285 6.64746 4.24512 5.75098 5.11523C4.09863 6.66211 2.9209 9 2.9209 11.6543C2.9209 16.6289 7.03418 20.7334 12 20.7334Z" fill="#757A8C"/>
</svg>
