<svg width="24" height="20" viewBox="0 0 24 20" fill="none" xmlns="http://www.w3.org/2000/svg">
<path d="M23.6486 15.4339H23.0045V8.4825C23.0045 8.28837 22.8472 8.13106 22.6531 8.13106H17.6713V1.17971C17.6713 0.985574 17.5139 0.82827 17.3198 0.82827H9.4736C9.27947 0.82827 9.12216 0.985574 9.12216 1.17971C9.12216 1.37384 9.27947 1.53115 9.4736 1.53115H10.7196V4.02383C10.7196 4.21796 10.8769 4.37527 11.071 4.37527H12.9022C13.0963 4.37527 13.2536 4.21796 13.2536 4.02383V1.53115H16.9684V8.13106H7.00477V1.53115H8.06841C8.26255 1.53115 8.41985 1.37384 8.41985 1.17971C8.41985 0.985574 8.26255 0.82827 8.06841 0.82827H6.65334C6.4592 0.82827 6.3019 0.985574 6.3019 1.17971V8.13106H1.33354C1.13941 8.13106 0.982106 8.28837 0.982106 8.4825V11.8683C0.982106 12.0624 1.13941 12.2197 1.33354 12.2197C1.52768 12.2197 1.68498 12.0624 1.68498 11.8683V8.83394H5.39973V11.3266C5.39973 11.5208 5.55703 11.6781 5.75117 11.6781H7.5823C7.77644 11.6781 7.93374 11.5208 7.93374 11.3266V8.83394H11.6485V15.4339H1.68498V13.2734C1.68498 13.0793 1.52768 12.922 1.33354 12.922C1.13941 12.922 0.982106 13.0793 0.982106 13.2734V15.4339H0.351438C0.157304 15.4339 0 15.5912 0 15.7853V17.361C0 17.5551 0.157304 17.7124 0.351438 17.7124H0.982106V18.4522C0.982106 18.8489 1.30487 19.1717 1.70157 19.1717H4.04341C4.44016 19.1717 4.76288 18.8489 4.76288 18.4522V17.7124H10.1096V18.4522C10.1096 18.8489 10.4324 19.1717 10.8291 19.1717H13.1709C13.5676 19.1717 13.8903 18.8489 13.8903 18.4522V17.7124H15.7016C15.8957 17.7124 16.053 17.5551 16.053 17.361C16.053 17.1668 15.8957 17.0095 15.7016 17.0095H0.702876V16.1368H23.2971V17.0095H17.1068C16.9127 17.0095 16.7554 17.1668 16.7554 17.361C16.7554 17.5551 16.9127 17.7124 17.1068 17.7124H19.2371V18.4522C19.2371 18.8489 19.5598 19.1717 19.9565 19.1717H22.2984C22.6951 19.1717 23.0178 18.8489 23.0178 18.4522V17.7124H23.6485C23.8426 17.7124 24 17.5551 24 17.361V15.7853C24 15.5912 23.8426 15.4339 23.6486 15.4339ZM12.5507 3.67244H11.4224V1.53115H12.5507V3.67244ZM13.1875 17.7124V18.4522C13.1875 18.4613 13.1801 18.4688 13.1709 18.4688H10.8291C10.82 18.4688 10.8125 18.4613 10.8125 18.4522V17.7124H13.1875ZM4.06005 17.7124V18.4522C4.06005 18.4613 4.0526 18.4688 4.04346 18.4688H1.70157C1.69243 18.4688 1.68498 18.4613 1.68498 18.4522V17.7124H4.06005ZM17.8839 8.83394V10.9752H16.7556V8.83394H17.8839ZM7.23087 10.9752H6.10261V8.83394H7.23087V10.9752ZM12.3514 8.83394H16.0528V11.3266C16.0528 11.5208 16.2101 11.6781 16.4042 11.6781H18.2354C18.4295 11.6781 18.5868 11.5208 18.5868 11.3266V8.83394H22.3016V15.4339H12.3514V8.83394ZM22.315 18.4522C22.315 18.4613 22.3076 18.4688 22.2984 18.4688H19.9566C19.9474 18.4688 19.94 18.4613 19.94 18.4522V17.7124H22.3151V18.4522H22.315Z" fill="#C1C1C1"/>
</svg>
