<svg width="24" height="24" viewBox="0 0 24 24" fill="none" xmlns="http://www.w3.org/2000/svg">
<path d="M8.48438 20.4375C8.48438 21.6006 9.43063 22.5468 10.5937 22.5468C11.7568 22.5468 12.7031 21.6006 12.7031 20.4375C12.7031 19.2744 11.7568 18.3281 10.5937 18.3281C9.43063 18.3281 8.48438 19.2744 8.48438 20.4375ZM10.5937 19.7344C10.9814 19.7344 11.2968 20.0498 11.2968 20.4375C11.2968 20.8252 10.9814 21.1406 10.5937 21.1406C10.206 21.1406 9.8906 20.8252 9.8906 20.4375C9.8906 20.0498 10.206 19.7344 10.5937 19.7344Z" fill="white"/>
<path d="M15.5624 20.4375C15.5624 21.6006 16.5087 22.5468 17.6718 22.5468C18.8349 22.5468 19.7811 21.6006 19.7811 20.4375C19.7811 19.2744 18.8349 18.3281 17.6718 18.3281C16.5087 18.3281 15.5624 19.2744 15.5624 20.4375ZM17.6718 19.7344C18.0595 19.7344 18.3749 20.0498 18.3749 20.4375C18.3749 20.8252 18.0595 21.1406 17.6718 21.1406C17.2841 21.1406 16.9687 20.8252 16.9687 20.4375C16.9687 20.0498 17.2841 19.7344 17.6718 19.7344Z" fill="white"/>
<path d="M23.2965 4.26558H5.49915C5.2584 3.42283 5.03406 2.63759 4.84136 1.96312C4.75516 1.66125 4.47921 1.45312 4.16529 1.45312H0.703114C0.314808 1.45312 0 1.76793 0 2.15624C0 2.54455 0.314808 2.85935 0.703114 2.85935H3.63491C4.42118 5.61162 6.25931 12.0453 7.02992 14.7424L6.76354 15.2752C6.06159 16.6792 7.08387 18.3279 8.65022 18.3279H20.4841C20.8724 18.3279 21.1872 18.0131 21.1872 17.6247C21.1872 17.2364 20.8724 16.9216 20.4841 16.9216H8.65022C8.1273 16.9216 7.78769 16.3714 8.02131 15.9041L8.21565 15.5154H20.4841C20.798 15.5154 21.0739 15.3073 21.1601 15.0055L23.9726 5.16186C24.1007 4.71351 23.7638 4.26558 23.2965 4.26558ZM19.9537 14.1092H8.31151C7.92841 12.7682 6.85621 9.01559 5.90091 5.67181H22.3644L19.9537 14.1092Z" fill="white"/>
</svg>
