<svg width="24" height="24" viewBox="0 0 24 24" fill="none" xmlns="http://www.w3.org/2000/svg">
<g clip-path="url(#clip0)">
<path d="M19.028 3.14444H16.8568V2.1731C16.8568 1.85884 16.514 1.71601 16.1997 1.71601H14.5142C14.1142 0.573235 13.1143 0.00184981 11.9715 0.00184981C10.8413 -0.0406391 9.8133 0.652362 9.42883 1.71601H7.77181C7.45755 1.71601 7.14328 1.85884 7.14328 2.1731V3.14444H4.97197C3.68528 3.15817 2.63262 4.1732 2.57214 5.45853V21.8287C2.57214 23.0857 3.71491 23.9999 4.97197 23.9999H19.028C20.2851 23.9999 21.4279 23.0857 21.4279 21.8287V5.45858C21.3674 4.1732 20.3147 3.15817 19.028 3.14444ZM8.286 2.85878H9.85732C10.1316 2.82531 10.3519 2.61664 10.4002 2.34454C10.5694 1.60773 11.2158 1.07884 11.9715 1.05893C12.7202 1.08163 13.3569 1.61216 13.5142 2.34454C13.5655 2.62605 13.8003 2.8374 14.0856 2.85878H15.7141V5.14432H8.286V2.85878ZM20.2851 21.8287C20.2851 22.4573 19.6566 22.8572 19.028 22.8572H4.97197C4.34344 22.8572 3.71491 22.4573 3.71491 21.8287V5.45858C3.77321 4.80435 4.31523 4.29924 4.97197 4.28727H7.14323V5.74431C7.17341 6.06442 7.45066 6.30388 7.77176 6.28715H16.1997C16.5267 6.30503 16.8126 6.06885 16.8567 5.74431V4.28721H19.028C19.6847 4.29924 20.2268 4.8043 20.285 5.45853V21.8287H20.2851Z" fill="white"/>
<path d="M9.80015 12.7719C9.58584 12.546 9.23008 12.5332 9.00019 12.7433L7.17175 14.486L6.40039 13.6861C6.18608 13.4602 5.83031 13.4475 5.60043 13.6575C5.37912 13.8894 5.37912 14.2542 5.60043 14.486L6.77174 15.686C6.87312 15.7995 7.01956 15.8623 7.17169 15.8574C7.3224 15.8553 7.46616 15.7936 7.57165 15.686L9.80004 13.5718C10.021 13.3692 10.0357 13.0258 9.83301 12.8049C9.82262 12.7934 9.81163 12.7824 9.80015 12.7719Z" fill="white"/>
<path d="M17.9996 14H11.4287C11.1131 14 10.8573 14.2558 10.8573 14.5714C10.8573 14.887 11.1131 15.1428 11.4287 15.1428H17.9996C18.3152 15.1428 18.571 14.887 18.571 14.5714C18.571 14.2558 18.3152 14 17.9996 14Z" fill="white"/>
<path d="M9.80015 8.2006C9.58584 7.9747 9.23008 7.96196 9.00019 8.17205L7.17175 9.91475L6.40039 9.11479C6.18608 8.8889 5.83031 8.87615 5.60043 9.08625C5.37912 9.3181 5.37912 9.6829 5.60043 9.91475L6.77174 11.1147C6.87312 11.2282 7.01956 11.291 7.17169 11.2861C7.3224 11.284 7.46616 11.2223 7.57165 11.1147L9.80004 9.00056C10.021 8.7979 10.0357 8.45449 9.83301 8.23362C9.82262 8.22209 9.81163 8.2111 9.80015 8.2006Z" fill="white"/>
<path d="M17.9996 9.42969H11.4287C11.1131 9.42969 10.8573 9.6855 10.8573 10.0011C10.8573 10.3167 11.1131 10.5725 11.4287 10.5725H17.9996C18.3152 10.5725 18.571 10.3167 18.571 10.0011C18.571 9.6855 18.3152 9.42969 17.9996 9.42969Z" fill="white"/>
<path d="M9.80015 17.3432C9.58584 17.1173 9.23008 17.1046 9.00019 17.3146L7.17175 19.0573L6.40039 18.2573C6.18608 18.0314 5.83031 18.0188 5.60043 18.2288C5.37912 18.4607 5.37912 18.8254 5.60043 19.0573L6.77174 20.2572C6.87312 20.3707 7.01956 20.4335 7.17169 20.4286C7.3224 20.4265 7.46616 20.3649 7.57165 20.2572L9.80004 18.1431C10.021 17.9405 10.0357 17.597 9.83301 17.3762C9.82262 17.3647 9.81163 17.3537 9.80015 17.3432Z" fill="white"/>
<path d="M17.9996 18.5713H11.4287C11.1131 18.5713 10.8573 18.8271 10.8573 19.1427C10.8573 19.4583 11.1131 19.7141 11.4287 19.7141H17.9996C18.3152 19.7141 18.571 19.4583 18.571 19.1427C18.571 18.8271 18.3152 18.5713 17.9996 18.5713Z" fill="white"/>
</g>
<defs>
<clipPath id="clip0">
<rect width="24" height="24" fill="white"/>
</clipPath>
</defs>
</svg>
