<svg width="32" height="32" viewBox="0 0 32 32" fill="none" xmlns="http://www.w3.org/2000/svg">
<g clip-path="url(#clip0_1223_4293)">
<path d="M16.1191 19.784C18.4194 19.784 20.2841 17.9192 20.2841 15.6189C20.2841 13.3186 18.4194 11.4539 16.1191 11.4539C13.8187 11.4539 11.954 13.3186 11.954 15.6189C11.954 17.9192 13.8187 19.784 16.1191 19.784Z" fill="#0A0822"/>
<path d="M12.2143 2.60327L9.83238 5.20645H5.70635C4.2746 5.20645 3.10317 6.37788 3.10317 7.80962V23.4287C3.10317 24.8604 4.2746 26.0318 5.70635 26.0318H26.5317C27.9635 26.0318 29.1349 24.8604 29.1349 23.4287V7.80962C29.1349 6.37788 27.9635 5.20645 26.5317 5.20645H22.4057L20.0238 2.60327H12.2143ZM16.119 22.1271C12.5267 22.1271 9.61111 19.2115 9.61111 15.6191C9.61111 12.0268 12.5267 9.11121 16.119 9.11121C19.7114 9.11121 22.627 12.0268 22.627 15.6191C22.627 19.2115 19.7114 22.1271 16.119 22.1271Z" fill="#0A0822"/>
</g>
<defs>
<clipPath id="clip0_1223_4293">
<rect width="31.2381" height="31.2381" fill="white" transform="translate(0.5)"/>
</clipPath>
</defs>
</svg>
