<svg width="10" height="16" viewBox="0 0 10 16" fill="none" xmlns="http://www.w3.org/2000/svg">
<path d="M1.53428 0.970213C1.32648 0.965642 1.12242 1.02588 0.950461 1.14265C0.778506 1.25942 0.647204 1.42694 0.574811 1.62178C0.502418 1.81662 0.492531 2.02914 0.546524 2.22986C0.600517 2.43058 0.715708 2.60941 0.876081 2.74164L6.99522 7.98381L0.876081 13.2241C0.765143 13.3057 0.672235 13.4092 0.603175 13.5283C0.534116 13.6474 0.490393 13.7795 0.474743 13.9163C0.459094 14.0531 0.471856 14.1916 0.51223 14.3232C0.552605 14.4549 0.619721 14.5768 0.709376 14.6813C0.799032 14.7858 0.909296 14.8705 1.03326 14.9304C1.15723 14.9903 1.29223 15.0239 1.4298 15.0293C1.56738 15.0346 1.70457 15.0115 1.83278 14.9613C1.961 14.9111 2.07747 14.835 2.17491 14.7378L9.18077 8.74357C9.29079 8.64968 9.37913 8.53315 9.43971 8.40181C9.50029 8.27048 9.53166 8.12753 9.53166 7.98289C9.53166 7.83826 9.50029 7.69531 9.43971 7.56397C9.37913 7.43263 9.29079 7.31598 9.18077 7.2221L2.17491 1.22212C1.99793 1.06492 1.77093 0.975551 1.53428 0.969982V0.970213Z" fill="#787878"/>
</svg>
