<svg width="24" height="24" viewBox="0 0 24 24" fill="none" xmlns="http://www.w3.org/2000/svg">
<path d="M7.87793 20.2148H16.1133C17.4668 20.2148 18.1436 19.5381 18.1436 18.0615V11.8389C18.1436 10.5381 17.6162 9.86133 16.5527 9.7207V7.66406C16.5527 4.32422 14.3291 2.71582 11.9912 2.71582C9.66211 2.71582 7.43848 4.32422 7.43848 7.66406V9.7207C6.375 9.86133 5.84766 10.5381 5.84766 11.8389V18.0615C5.84766 19.5381 6.51562 20.2148 7.87793 20.2148ZM9.1084 7.49707C9.1084 5.43164 10.418 4.31543 11.9912 4.31543C13.5645 4.31543 14.8828 5.43164 14.8828 7.49707V9.69434H9.1084V7.49707ZM8.13281 18.6504C7.74609 18.6504 7.55273 18.4658 7.55273 18V11.9004C7.55273 11.4346 7.74609 11.2676 8.13281 11.2676H15.8672C16.2539 11.2676 16.4385 11.4346 16.4385 11.9004V18C16.4385 18.4658 16.2539 18.6504 15.8672 18.6504H8.13281Z" fill="#757A8C"/>
</svg>
