<svg width="24" height="24" viewBox="0 0 24 24" fill="none" xmlns="http://www.w3.org/2000/svg">
<path d="M12 0C5.38321 0 0 5.38321 0 12C0 18.6168 5.38321 24 12 24C18.6168 24 24 18.6168 24 12C24 5.38321 18.6168 0 12 0ZM12 22.7027C9.0602 22.7027 6.39373 21.5111 4.45749 19.5859C3.68429 18.8171 3.02793 17.931 2.51687 16.9572C1.73856 15.4743 1.29731 13.7878 1.29731 12C1.29731 6.09852 6.09852 1.29731 12 1.29731C14.7992 1.29731 17.3504 2.37798 19.2595 4.14346C20.2494 5.05872 21.0668 6.15787 21.6562 7.38642C22.3267 8.7842 22.7027 10.349 22.7027 12C22.7027 17.9015 17.9015 22.7027 12 22.7027Z" fill="white"/>
<path d="M13.2678 15.2114C14.6911 15.5091 15.9696 16.3093 16.8678 17.4646L17.892 16.6684C16.8053 15.2705 15.2573 14.3021 13.5333 13.9415C10.7607 13.3621 7.84572 14.4322 6.10724 16.6684L7.13155 17.4646C8.568 15.6168 10.9767 14.7322 13.2678 15.2114Z" fill="white"/>
<path d="M8.00019 10.622C8.71667 10.622 9.2975 10.0411 9.2975 9.32466C9.2975 8.60817 8.71667 8.02734 8.00019 8.02734C7.28371 8.02734 6.70288 8.60817 6.70288 9.32466C6.70288 10.0411 7.28371 10.622 8.00019 10.622Z" fill="white"/>
<path d="M16.0274 10.622C16.7439 10.622 17.3247 10.0411 17.3247 9.32466C17.3247 8.60817 16.7439 8.02734 16.0274 8.02734C15.3109 8.02734 14.73 8.60817 14.73 9.32466C14.73 10.0411 15.3109 10.622 16.0274 10.622Z" fill="white"/>
</svg>
